/* XPM */
static char * coin_xpm[] = {
"60 60 362 2",
"  	c None",
". 	c #FCC303",
"+ 	c #FDC202",
"@ 	c #FCBD02",
"# 	c #F6AE01",
"$ 	c #FFDD0F",
"% 	c #FFCF08",
"& 	c #FFD20F",
"* 	c #FFCD04",
"= 	c #FFCA02",
"- 	c #FFC702",
"; 	c #FFC502",
"> 	c #FFC602",
", 	c #F8C44E",
"' 	c #E5914D",
") 	c #FFE627",
"! 	c #FFE723",
"~ 	c #FFE525",
"{ 	c #FCD41A",
"] 	c #FCCA12",
"^ 	c #FABC06",
"/ 	c #FABB02",
"( 	c #FDC102",
"_ 	c #FEC503",
": 	c #FECC3E",
"< 	c #F4BA65",
"[ 	c #EE6512",
"} 	c #FFEF4F",
"| 	c #FFEE45",
"1 	c #F2D32F",
"2 	c #F0AE12",
"3 	c #F39C01",
"4 	c #F39900",
"5 	c #F09300",
"6 	c #ED8E00",
"7 	c #EB8A00",
"8 	c #EE9500",
"9 	c #F7B102",
"0 	c #FFC503",
"a 	c #FFC926",
"b 	c #FAC877",
"c 	c #F77602",
"d 	c #FFF163",
"e 	c #FCEE5E",
"f 	c #E3B236",
"g 	c #F39F01",
"h 	c #FAA601",
"i 	c #F7A101",
"j 	c #F49B00",
"k 	c #F09400",
"l 	c #E98801",
"m 	c #E98701",
"n 	c #EF9A01",
"o 	c #FFCE42",
"p 	c #FCD076",
"q 	c #FAA302",
"r 	c #FFEF61",
"s 	c #FFF367",
"t 	c #DCA538",
"u 	c #F6A502",
"v 	c #FDAC01",
"w 	c #FBA901",
"x 	c #F9A501",
"y 	c #F8A800",
"z 	c #F3AB01",
"A 	c #ED9000",
"B 	c #EC8D01",
"C 	c #EB8900",
"D 	c #EA8700",
"E 	c #E98600",
"F 	c #ED9100",
"G 	c #FEC302",
"H 	c #FFC802",
"I 	c #FEE071",
"J 	c #FDCF4C",
"K 	c #FFF364",
"L 	c #E3BC4A",
"M 	c #F3A201",
"N 	c #FEAE01",
"O 	c #FCAC03",
"P 	c #FDB113",
"Q 	c #FDC71B",
"R 	c #FDD71A",
"S 	c #FAD318",
"T 	c #F6BE02",
"U 	c #F3A901",
"V 	c #EC8B00",
"W 	c #EA8800",
"X 	c #E98500",
"Y 	c #F09D01",
"Z 	c #FFCE02",
"` 	c #FDE383",
" .	c #FBA801",
"..	c #FFF14E",
"+.	c #F9E754",
"@.	c #DF9210",
"#.	c #FEB101",
"$.	c #FEBA24",
"%.	c #FDE634",
"&.	c #FFEB00",
"*.	c #FFE800",
"=.	c #FED802",
"-.	c #FFD902",
";.	c #FFD601",
">.	c #F5B201",
",.	c #EA8900",
"'.	c #E88500",
").	c #E88501",
"!.	c #F9BE02",
"~.	c #FFD202",
"{.	c #FEE25D",
"].	c #FAA257",
"^.	c #F9EB44",
"/.	c #DEB331",
"(.	c #F9B501",
"_.	c #FEB401",
":.	c #FEAF01",
"<.	c #FFDE2E",
"[.	c #FDE602",
"}.	c #E8AE0D",
"|.	c #F0B904",
"1.	c #F4BF02",
"2.	c #FFD301",
"3.	c #F7BB01",
"4.	c #EB9500",
"5.	c #E98601",
"6.	c #EFA002",
"7.	c #FFD502",
"8.	c #FFD927",
"9.	c #FCCE89",
"0.	c #FB9B01",
"a.	c #FCED3E",
"b.	c #D28B13",
"c.	c #FFC102",
"d.	c #FEB901",
"e.	c #FEB201",
"f.	c #FFEA2B",
"g.	c #FAE003",
"h.	c #F1AC0D",
"i.	c #F3C103",
"j.	c #E38803",
"k.	c #E69503",
"l.	c #E48802",
"m.	c #E78701",
"n.	c #E98700",
"o.	c #FED204",
"p.	c #FFD907",
"q.	c #FDE389",
"r.	c #FEBB01",
"s.	c #FEEB12",
"t.	c #FCE92A",
"u.	c #D99001",
"v.	c #FEB701",
"w.	c #FEDD1D",
"x.	c #FEE801",
"y.	c #FEEA02",
"z.	c #FDDF01",
"A.	c #F3C303",
"B.	c #ED9902",
"C.	c #F19600",
"D.	c #EF9200",
"E.	c #EC8D00",
"F.	c #EA8801",
"G.	c #FAC90B",
"H.	c #FFDD12",
"I.	c #FEEB82",
"J.	c #FFD500",
"K.	c #FFEB03",
"L.	c #F4D811",
"M.	c #DB9401",
"N.	c #FFD002",
"O.	c #FFCC02",
"P.	c #FFC002",
"Q.	c #F6B917",
"R.	c #FDDC1A",
"S.	c #FFE600",
"T.	c #FFEA00",
"U.	c #FFE001",
"V.	c #FDD403",
"W.	c #F7C002",
"X.	c #EB9A02",
"Y.	c #ED8F00",
"Z.	c #EC8C00",
"`.	c #F7C412",
" +	c #FFE31D",
".+	c #FEEE94",
"++	c #FBE951",
"@+	c #F4D804",
"#+	c #DD9602",
"$+	c #FFD402",
"%+	c #FFD302",
"&+	c #FECA03",
"*+	c #FFC203",
"=+	c #F1AC18",
"-+	c #F0BD2B",
";+	c #F8D527",
">+	c #FEE31C",
",+	c #FFDE01",
"'+	c #FDD903",
")+	c #E69003",
"!+	c #EE9000",
"~+	c #F7C818",
"{+	c #FFE827",
"]+	c #FEED8E",
"^+	c #F9ED6F",
"/+	c #FBE300",
"(+	c #D98604",
"_+	c #FED503",
":+	c #FFC202",
"<+	c #F3AB02",
"[+	c #F1BE12",
"}+	c #F2C52A",
"|+	c #FED003",
"1+	c #EEA902",
"2+	c #EC8F01",
"3+	c #EE8F00",
"4+	c #F9D427",
"5+	c #FFEC36",
"6+	c #FDE769",
"7+	c #FDDE2C",
"8+	c #D77F05",
"9+	c #FFD603",
"0+	c #FDD419",
"a+	c #FFE429",
"b+	c #FFE521",
"c+	c #F7D41B",
"d+	c #FDC001",
"e+	c #F3CA01",
"f+	c #E58905",
"g+	c #FFE101",
"h+	c #EDA803",
"i+	c #EC9001",
"j+	c #EF9300",
"k+	c #ED8D00",
"l+	c #EB8B00",
"m+	c #FDE741",
"n+	c #FEEF4A",
"o+	c #FDD85E",
"p+	c #FEC600",
"q+	c #E4AB05",
"r+	c #F3BD04",
"s+	c #FFD602",
"t+	c #FDD102",
"u+	c #FCDA26",
"v+	c #FFE500",
"w+	c #F2C602",
"x+	c #F1C101",
"y+	c #F6C102",
"z+	c #FFE301",
"A+	c #FDCC01",
"B+	c #E59602",
"C+	c #F19902",
"D+	c #F19500",
"E+	c #F0A725",
"F+	c #FEF155",
"G+	c #FFEE52",
"H+	c #FCC457",
"I+	c #FDB001",
"J+	c #FBE706",
"K+	c #F7DB03",
"L+	c #E09205",
"M+	c #F4C11B",
"N+	c #FCD11C",
"O+	c #FFD901",
"P+	c #FBDC05",
"Q+	c #FDE003",
"R+	c #FFDF01",
"S+	c #FED201",
"T+	c #F0AE01",
"U+	c #E68C03",
"V+	c #F59E00",
"W+	c #F09602",
"X+	c #F6D44E",
"Y+	c #FFF25E",
"Z+	c #FEE447",
"`+	c #FBA741",
" @	c #FFEB01",
".@	c #E6AD04",
"+@	c #F3BB03",
"@@	c #F3BD09",
"#@	c #E8A81B",
"$@	c #F1B409",
"%@	c #F7BC02",
"&@	c #F0B002",
"*@	c #E59703",
"=@	c #EA9503",
"-@	c #F9A601",
";@	c #F59D00",
">@	c #F29800",
",@	c #F0AA30",
"'@	c #FEF267",
")@	c #FDD53F",
"!@	c #FCBA00",
"~@	c #FDE600",
"{@	c #DE9305",
"]@	c #F5BF03",
"^@	c #FED402",
"/@	c #FDD205",
"(@	c #FAC503",
"_@	c #F0AD03",
":@	c #EFA804",
"<@	c #FCB901",
"[@	c #FBB201",
"}@	c #F7A601",
"|@	c #F29901",
"1@	c #EF9F20",
"2@	c #FCEA61",
"3@	c #FDF167",
"4@	c #FEE957",
"5@	c #FCC600",
"6@	c #FFE801",
"7@	c #DE9105",
"8@	c #EAA804",
"9@	c #FFCD02",
"0@	c #FBC402",
"a@	c #FCC302",
"b@	c #FCBD01",
"c@	c #F9B201",
"d@	c #F4A302",
"e@	c #E99D1B",
"f@	c #F9E657",
"g@	c #FFF363",
"h@	c #FFEF60",
"i@	c #F9BB22",
"j@	c #FAA401",
"k@	c #FFE202",
"l@	c #FFDC01",
"m@	c #EDB304",
"n@	c #DD8706",
"o@	c #E9A404",
"p@	c #F4B902",
"q@	c #FCC402",
"r@	c #FBC102",
"s@	c #EFAB01",
"t@	c #E19503",
"u@	c #E8B81E",
"v@	c #FDEC46",
"w@	c #FFF257",
"x@	c #FFEE58",
"y@	c #FAB521",
"z@	c #F87B01",
"A@	c #FFDD02",
"B@	c #FFD802",
"C@	c #FFD702",
"D@	c #F4C103",
"E@	c #EAB103",
"F@	c #E1A301",
"G@	c #E6B001",
"H@	c #EDBF04",
"I@	c #FDDE16",
"J@	c #FFE92F",
"K@	c #FFEE43",
"L@	c #FEE845",
"M@	c #F4A916",
"N@	c #FFD703",
"O@	c #FED907",
"P@	c #FFE018",
"Q@	c #FEE329",
"R@	c #F6C822",
"S@	c #E47D00",
"T@	c #FCCD1D",
"U@	c #FDCB0A",
"                                                                                                                        ",
"                                                                                                                        ",
"                                                                                                                        ",
"                                                                                                                        ",
"                                                                                                                        ",
"                                                                                                                        ",
"                                                                                                                        ",
"                                                                                                                        ",
"                                                                                                                        ",
"                                                                                                                        ",
"                                                                                                                        ",
"                                                                                                                        ",
"                                                                                                                        ",
"                                                                                                                        ",
"                                                                                                                        ",
"                                                                                                                        ",
"                                                                                                                        ",
"                                                                                                                        ",
"                                                          . + @ #                                                       ",
"                                                    $ % & * = - ; > , '                                                 ",
"                                                ) ! ~ { ] ^ / ( ; ; _ : < [                                             ",
"                                              } | 1 2 3 4 5 6 7 8 9 0 ; a b c                                           ",
"                                            d e f g h i j k 6 7 l m n ( ; o p q                                         ",
"                                          r s t u v w x y z A B C D E F G H I J                                         ",
"                                          K L M N O P Q R S T U V W E X Y = Z `  .                                      ",
"                                        ..+.@.#.N $.%.&.*.=.-.;.>.,.E '.).!.~.{.].                                      ",
"                                        ^./.(._.:.<.&.[.}.|.1.2.3.4.E E 5.6.7.8.9.0.                                    ",
"                                        a.b.c.d.e.f.&.g.h.i.j.k.l.m.n.m 5.n.o.p.q.r.                                    ",
"                                      s.t.u.H c.v.w.x.y.z.A.B.C.D.E.,.D n.F.G.H.I.J.                                    ",
"                                      K.L.M.N.O.P.Q.R.S.T.U.V.W.X.Y.Z.,.W W `. +.+++                                    ",
"                                      &.@+#+$+%+&+*+=+-+;+>+,+'+= )+!+Z.7 ,.~+{+]+^+                                    ",
"                                      &./+(+7._+N.= :+v.<+[+}+U.|+1+2+3+Z.7 4+5+6+7+                                    ",
"                                        &.8+_+9+0+a+b+c+d+e+f+g+2.h+i+j+k+l+m+n+o+p+                                    ",
"                                        &.q+r+s+t+u+v+T.w+x+y+z+A+B+C+D+!+E+F+G+H+I+                                    ",
"                                        J+K+L+7.s+M+N+O+P+Q+R+S+T+U+V+W+D.X+Y+Z+`+                                      ",
"                                           @.@+@7.s+@@#@$@%@&@*@=@-@;@>@,@'@K )@!@                                      ",
"                                           @~@{@]@7.^@/@(@_@:@<@[@}@|@1@2@3@4@5@                                        ",
"                                            6@z.7@8@N.N.9@0@a@b@c@d@e@f@g@h@i@j@                                        ",
"                                              k@l@m@n@o@p@q@r@s@t@u@v@w@x@y@z@                                          ",
"                                                A@B@C@D@E@F@G@H@I@J@K@L@M@                                              ",
"                                                    7.s+s+C@N@O@P@Q@R@S@                                                ",
"                                                            T@U@                                                        ",
"                                                                                                                        ",
"                                                                                                                        ",
"                                                                                                                        ",
"                                                                                                                        ",
"                                                                                                                        ",
"                                                                                                                        ",
"                                                                                                                        ",
"                                                                                                                        ",
"                                                                                                                        ",
"                                                                                                                        ",
"                                                                                                                        ",
"                                                                                                                        ",
"                                                                                                                        ",
"                                                                                                                        ",
"                                                                                                                        ",
"                                                                                                                        ",
"                                                                                                                        ",
"                                                                                                                        "};
