/* XPM */
static char *_d6e6c7fa91044fffdec715ba82f6238wAqSI1WA8vWgxsUS[] = {
/* columns rows colors chars-per-pixel */
"50 50 208 2 ",
"   c #FDFDFD",
".  c #EAEAEA",
"X  c #F1F1F1",
"o  c #F8F8F8",
"O  c #E1E1E1",
"+  c #FBFBFB",
"@  c #E7E7E7",
"#  c #EEEEEE",
"$  c #E4E4E4",
"%  c gray94",
"&  c #E2E2E2",
"*  c gray98",
"=  c #F9F9F9",
"-  c #FEFEFE",
";  c gray92",
":  c gray93",
">  c #ECECEC",
",  c #EFEFEF",
"<  c gray91",
"1  c gray90",
"2  c gray96",
"3  c gray95",
"4  c #F3F3F3",
"5  c #F4F4F4",
"6  c #D8D8D8",
"7  c #B1B1B1",
"8  c gray59",
"9  c #BBBBBB",
"0  c gray80",
"q  c #929292",
"w  c gray65",
"e  c #CBCBCB",
"r  c gray87",
"t  c #606060",
"y  c gray9",
"u  c black",
"i  c #202020",
"p  c #585858",
"a  c gray5",
"s  c #4B4B4B",
"d  c #C3C3C3",
"f  c #E6E6E6",
"g  c gray97",
"h  c #F6F6F6",
"j  c gray88",
"k  c #414141",
"l  c #020202",
"z  c #151515",
"x  c gray2",
"c  c #505050",
"v  c #181818",
"b  c gray15",
"n  c gray",
"m  c #E9E9E9",
"M  c white",
"N  c gray89",
"B  c gray99",
"V  c gray30",
"C  c gray11",
"Z  c #D2D2D2",
"A  c #191919",
"S  c #515151",
"D  c #A0A0A0",
"F  c #C6C6C6",
"G  c #444444",
"H  c #010101",
"J  c #101010",
"K  c gray78",
"L  c #CACACA",
"P  c #A2A2A2",
"I  c gray82",
"U  c #313131",
"Y  c #808080",
"T  c gray13",
"R  c gray57",
"E  c #D0D0D0",
"W  c gray10",
"Q  c gray74",
"!  c #0E0E0E",
"~  c #090909",
"^  c #CECECE",
"/  c #DADADA",
"(  c #B7B7B7",
")  c #C0C0C0",
"_  c gainsboro",
"`  c #1B1B1B",
"'  c gray63",
"]  c gray28",
"[  c #848484",
"{  c gray86",
"}  c #AEAEAE",
"|  c #7E7E7E",
" . c #0B0B0B",
".. c #626262",
"X. c DimGray",
"o. c #6A6A6A",
"O. c #A4A4A4",
"+. c gray20",
"@. c gray3",
"#. c gray1",
"$. c gray79",
"%. c #040404",
"&. c gray23",
"*. c #131313",
"=. c #898989",
"-. c #222222",
";. c gray71",
":. c #9F9F9F",
">. c #0C0C0C",
",. c gray4",
"<. c #C8C8C8",
"1. c gray76",
"2. c #393939",
"3. c #939393",
"4. c #484848",
"5. c gray58",
"6. c #565656",
"7. c gray66",
"8. c gray17",
"9. c #535353",
"0. c gray31",
"q. c #838383",
"w. c gray38",
"e. c gray18",
"r. c #9A9A9A",
"t. c gray81",
"y. c #9D9D9D",
"u. c #2C2C2C",
"i. c #4C4C4C",
"p. c gray43",
"a. c gray16",
"s. c gray7",
"d. c #BCBCBC",
"f. c gray48",
"g. c #CDCDCD",
"h. c #161616",
"j. c gray35",
"k. c gray24",
"l. c #DFDFDF",
"z. c gray6",
"x. c #7C7C7C",
"c. c #060606",
"v. c gray60",
"b. c #3C3C3C",
"n. c #8D8D8D",
"m. c #2A2A2A",
"M. c #A7A7A7",
"N. c #989898",
"B. c #464646",
"V. c gray8",
"C. c #8E8E8E",
"Z. c gray46",
"A. c gray37",
"S. c #909090",
"D. c #5B5B5B",
"F. c gray67",
"G. c #C5C5C5",
"H. c gray22",
"J. c #656565",
"K. c gray36",
"L. c gray56",
"P. c gray64",
"I. c #888888",
"U. c gray42",
"Y. c #5A5A5A",
"T. c #A5A5A5",
"R. c #868686",
"E. c #AAAAAA",
"W. c #494949",
"Q. c #6F6F6F",
"!. c gray68",
"~. c gray49",
"^. c #5D5D5D",
"/. c gray53",
"(. c #727272",
"). c gray72",
"_. c #818181",
"`. c gray40",
"'. c #1E1E1E",
"]. c #555555",
"[. c gray55",
"{. c #ACACAC",
"}. c gray32",
"|. c gray50",
" X c #646464",
".X c #8B8B8B",
"XX c gray12",
"oX c gray83",
"OX c gray39",
"+X c #959595",
"@X c #070707",
"#X c #DDDDDD",
"$X c gray61",
"%X c #4E4E4E",
"&X c gray85",
"*X c #111111",
"=X c #6C6C6C",
"-X c gray52",
";X c gray26",
":X c gray21",
">X c gray84",
",X c #343434",
"<X c #B9B9B9",
"1X c #353535",
"2X c #373737",
"3X c #3E3E3E",
"4X c gray69",
"5X c gray73",
/* pixels */
"  . X o O + @ # o $ + . % o & * . # = & - . ; o $ + : # * O o . ; - & * : > = & o , ; + $ * : < * 1 ",
". X , > 2 ; 3 % > 4 ; X , : 5 ; 6 7 8 9 . X X > 5 ; % % ; 2 0 q w e % > % X > 5 > , X ; 5 > % 3 ; 4 ",
"X , % % # X # , % # X , % X r t y u u i 3 , , % # X , , X # p u u a s d , , % # % % , X # X , , X # ",
"o > % 5 f g . # 2 < h > % j k l u z x z = > : 5 < g # # h @ c u v u u b n : 2 @ 5 , : h < h # ; h m ",
"O 2 # f M N o X 1 B N 2 , V u C 9 Z A A & 2 5 f B N 3 X N M S u D F G u i # 1 - f , 5 N B $ 3 g N + ",
"+ ; X g N * < # g 1 * ; w H J K ; L C z   ; > g 1 * : # = N c u P B I U u Y o $ g , > = 1 = : m = f ",
"@ 3 # . o < 5 X . h < % T l R m 3 E W v m 3 3 . g < X X m o S u D @ o Q ! ~ ^ o . % 3 m g m X 5 m h ",
"# % , / ( K % , # X # ) u C _ # % ^ ` y , % % # X # % , # X S u ' # X ; ] u [ X # , % # { } ^ % # X ",
"o > |  .u l ..$ 2 @ g X.u o.@ h > e C z * > > 2 @ g # # h 1 S u P = f h O.u +.& 2 , > D @.u #.V , < ",
"$ $.! %.&.*.u =.@ = 6 -.u ;.+ @ 5 I A v 1 4 4 < = 1 X X f B S u :.N + f f >.,.<.< , 1.J @.2.J H 3.o ",
"+ 8 u 4.& 5.u 6.g 1 7.l 8.5 $ o ; L C z B ; > h 1 * : # o N c u P + $ o : c u 9.2 , [ u 0.= q.u w.1 ",
". 7.u b ( p u t > f e.u r.> 5 > X t.W y > X X > 5 ; % % ; 2 S u D . 5 > % F %.! 1., y.u u.;.i.u p.4 ",
"% & a.u u u s.d.% f.u i : % # % , g.` h.3 , , % , % , , % # c u ' X # % , , j.u k.% l.k u u u ! $.# ",
"o L z.%.e.! #.x.o.%.c.v.% 5 @ h > e C z = : : 5 < g # # h @ S u P o @ h # : g.` u b.n.C x m. .#.M.m ",
"& N.u B.= q.u u u V.C.3 # @ B f 5 Z A A $ 5 5 @ + $ 3 X $ - S u :.& B f 3 4 f e 8.u u u 9.& Z.u A.o ",
"* S.u D.1 F.u i R G.o > % h f g > L C z + > > 2 @ o # # o 1 c u P * f g # : g 1 $ D H.u J.o 3.u K.1 ",
". L.u K.2 P.u s > 5 ; X , > 5 > X t.W y > X X > 5 ; % % ; 2 S u D . 5 > % X > 5 > , I.u U.> L.u Y.X ",
"# L.u K.X T.u i.# X # % , # X # % ^ W y , % % # X # % % # X S u ' # X # % % # X # , R.u o.# S.u Y.# ",
"= S.u D.1 E.u c h @ o > % 2 f g > L C z * > > 2 @ o # # g 1 c u P * f g # : h 1 2 , Y u J.g 3.u K.1 ",
"& C.u K.- :.u W.f + N 5 # @   1 5 Z A A N 5 5 @ + N 3 X $ - S u :.O   1 3 4 1   f , n.u Q.1 n.u j.g ",
"- S.u D.l.!.u S = & B m % o O * . $.C V.M . ; o & B > : + l.c u P M O * : ; * j o , ~.u ..+ 5.u ^.O ",
". L.u K.2 O.u i.> 4 ; X , : 5 > X t.W y > X X > 5 ; % % ; 2 S u D ; 5 > % X > 5 > , I.u U.> L.u Y.X ",
"; L.u K.5 O.u i.> 4 > X , : 5 < % t.W y : X X : 4 > % % > 5 c u D ; % > % % > 5 > % /.u U.: L.u Y.% ",
"o S.u K.f E.u 0.2 < h > % 5 1 ..(.e C z = > : 5 < g # # h @ c u P ).k.$ # : 2 @ 5 , _.u `.h 3.u D.f ",
"$ L.u K.B D u W.@ = 1 5 , < 1 C '.I A v 1 5 4 < * 1 X X 1 B S u D ].#.!.3 4 @ + @ , [.u p.@ n.u j.h ",
"+ S.u D.N {.u c g 1 * ; % g e z s.e C z   ; > g 1 * : # = N c u P }.H ( : > o $ g , |.u  X= 5.u K.$ ",
": L.u K.3 T.u i.# X : % , # . b.9.^ W y # % % # X : % % : 3 S u D .XXXE % % # 3 # , /.u o.# S.u Y., ",
"# L.u K.X T.u i.# X # % , # X { $ ^ ` y , % % # X # % , # X S u ' > oX# % % # X # , R.u o.# S.u Y.# ",
"* S.u D.N F.u c h f o ; % h $ o ; L C z + ; > h 1 = : # o N S u P + $ o : > g $ h , |.u J.o 3.u K.$ ",
"O C.u K.M :.u W.1 B N 2 # @ - 1 2 Z A A & 2 5 @ B N 3 X N M S u :.O - 1 3 5 1 - f , n.u Q.1 [.u p o ",
"o S.u D.f E.u 0.2 < g > % 2 @ h > e C z = > : 5 @ g # # h f c u P o @ h # : 2 f 2 , Y u J.h 3.u K.f ",
". L.u K.2 O.u s > 4 ; X , > 5 > X t.W y > X X > 5 ; % % ; 2 S u D . 5 > % X > 5 > , I.u U.> L.u Y.X ",
"; L.u K.5 O.u i.> 4 > X , : 4 > X t.W y > X X : 4 > % % > 5 S u D ; 4 > % X > 5 > , /.u U.> L.u Y.% ",
"- S.u D.O !.u S = N + . X o & * . $.C V.M ; ; o N B : # + O S u P.- & * : > * O o % ~.u OX+ +Xu K.& ",
"& C.u K.- :.u W.f + $ 5 # @ B f 5 I A A N 5 5 @ + $ 3 X $ - S u :.& B 1 3 4 f   f , [.u Q.f n.u j.g ",
"* S.u D.$ F.u c h f o > % h f g > L C z + > > 2 f o # # o 1 c u P * 1 g # > g 1 h , Y u J.o 3.u K.1 ",
": L.u K.3 O.u i.# X : % , # 3 # % ^ W y # % % # 3 : % % : 3 S u D : 3 # % % # 3 # , /.u o.# S.u Y., ",
"> L.u K.5 O.u i.: 4 > X , : 4 : X t.W y : X % : 4 > % % > 5 S u ' > 4 > % % : 4 : , I.u U.: S.u Y.% ",
"= S.u D.1 E.u c h @ o > % 2 f g ; 7 h.z * > > 2 @ o # # g 1 c u =.g f g # : h 1 2 , Y u J.g 3.u K.1 ",
"& C.u K.- :.u W.f + $ 5 # @ * ) Y.J u '.N 5 5 @ + $ 3 X $ - ].u @Xb.( #X3 4 1   f , n.u Q.1 n.u j.g ",
"o S.u D.f E.u 0.2 < g > 1 N.k a u x H.$X= > > 5 @ g # # h f <.%X>.u c.u.x.{ 2 f 2 , Y u J.h 3.u K.f ",
", L.u K., w u V , , O [ a u u x W.K , , , , % , , , , , , , , % &XA.*Xu u #.=XL , , -Xu X., S.u Y.: ",
"; L.u K.5 O.u ;X' 9.c.u @X:X-X>XX % > 5 ; X X : 4 > % % > 5 : X X ; m :.4.,.u l ,XR Z.u U.: L.u Y.% ",
"+ S.u D.N F.u a l u ~ 2.N.@ $ o ; # g $ + ; > h 1 = : # o N h ; > + $ o . P.S V.u u >.u  Xo 5.u K.$ ",
"$ L.u K.B D u u C f.<X# , < + @ 5 X @ + & 5 4 < * 1 X X 1 B @ 5 4 N + f 3 4 1 r /.1Xu u p.@ n.u j.h ",
"* S.u D.$ F.u k h @ o > % h f o > # g 1 + > : h @ = # # o 1 h > > + f o # : g 1 h % Q.u J.o 3.u K.1 ",
": L.u 2X[.`.u i.# X : % , # 3 # % % # 3 > % % # X : % % : 3 # % % : 3 # % % # 3 # , /.u 3X3.p u Y., ",
"< R u u u u u V . h m 3 , ; g . 3 % . g @ 3 3 ; h m X % m g ; 3 3 < g . X 3 . g . , .Xu u u u u D.4 ",
"* E ..K.p K.Y.4Xh f o ; % h $ o ; # g $ + ; > h 1 = : # o N h ; > + $ o : > g $ h , F X.j.K.Y.D.5Xf ",
"1 4 > f o $ 5 % < o f 4 # m * < 4 X < * $ 4 4 m = f X X @ + < 4 4 1 * @ X 3 < * < , 4 1 h 1 , 4 f g "
};
