/* XPM */
static char *_717b8d1f83a4ce1f10fac60a22796604EOw71iTd6LVZara[] = {
/* columns rows colors chars-per-pixel */
"50 47 113 2 ",
"   c white",
".  c #EFEFEF",
"X  c #FBFBFB",
"o  c #F9F9F9",
"O  c gray90",
"+  c #EAEAEA",
"@  c #E9E9E9",
"#  c #E6E6E6",
"$  c gray99",
"%  c #EEEEEE",
"&  c #FEFEFE",
"*  c #F1F1F1",
"=  c gainsboro",
"-  c #CBCBCB",
";  c #B6B6B6",
":  c gray94",
">  c #FDFDFD",
",  c gray93",
"<  c #D8D8D8",
"1  c #C0C0C0",
"2  c gray77",
"3  c gray83",
"4  c LightGray",
"5  c gray82",
"6  c #D0D0D0",
"7  c gray81",
"8  c #CECECE",
"9  c #CDCDCD",
"0  c gray80",
"q  c #A2A2A2",
"w  c #D7D7D7",
"e  c #B7B7B7",
"r  c gray87",
"t  c #C1C1C1",
"y  c gray79",
"u  c #D2D2D2",
"i  c gray98",
"p  c #C5C5C5",
"a  c #ECECEC",
"s  c gray91",
"d  c gray65",
"f  c gray95",
"g  c gray84",
"h  c #AAAAAA",
"j  c #E9EAE5",
"k  c #EEF2DF",
"l  c #E9EDDA",
"z  c #E8EAE0",
"x  c #E5EEC6",
"c  c #E3EDC3",
"v  c #D5D5D5",
"b  c #EDEEEB",
"n  c #FEFEFC",
"m  c gray72",
"M  c gray92",
"N  c #DCE3C8",
"B  c #EDF4D5",
"V  c #D7E0BD",
"C  c #F8FBF1",
"Z  c #B9B9B9",
"A  c #DFDFDF",
"S  c #EAEBE5",
"D  c gray85",
"F  c gray73",
"G  c #DADADA",
"H  c #BCBCBC",
"J  c #E1E1E1",
"K  c #BBBBBB",
"L  c #C6C6C6",
"P  c gray68",
"I  c gray71",
"U  c gray89",
"Y  c gray",
"T  c gray74",
"R  c gray69",
"E  c gray75",
"W  c #E2E2E2",
"Q  c gray76",
"!  c #C3C3C3",
"~  c #C8C8C8",
"^  c gray97",
"/  c #F4F4F4",
"(  c gray96",
")  c gray78",
"_  c #E4E4E4",
"`  c #B2B2B2",
"'  c gray88",
"]  c #AEAEAE",
"[  c gray86",
"{  c gray70",
"}  c #E1E3DB",
"|  c #DCDFD4",
" . c #E1E2DC",
".. c #B7D46B",
"X. c #B5D25F",
"o. c #B8D46A",
"O. c #ACACAC",
"+. c #BAD672",
"@. c #C1D87A",
"#. c #B6D266",
"$. c #A9A9A9",
"%. c gray62",
"&. c #9D9D9D",
"*. c #A0A0A0",
"=. c gray63",
"-. c #A4A4A4",
";. c gray64",
":. c #A5A5A5",
">. c #A7A7A7",
",. c gray66",
"<. c #D1E0A8",
"1. c #D5E6A1",
"2. c #DDEAB7",
/* pixels */
"                                                                                              .   X ",
"                  o O + + + + @ @ @ @ @ @ @ @ @ @ @ @ @ @ @ @ @ @ @ @ @ @ # $                 % & * ",
"                  = - # + + + @ @ @ @ @ @ @ @ @ @ @ @ @ @ @ @ @ @ @ @ @ @ ; :                 . > , ",
"                  < 1 2 3 4 5 5 6 6 6 6 7 7 7 7 7 8 8 8 8 9 8 9 0 0 - - q % %                 % > , ",
"            $ $   w e r                               & $ $             t % %                 . > % ",
"          > $     w ; r       > $ >                   > $               y u % >               , i , ",
"        > $       w ; r       > $ $                 & $                 3 p a $               s . , ",
"      > >         w ; r       & & &               > $                   3 d , &               + f , ",
"      &           g ; r                           >                     4 h a                 j k l ",
"                  g ; r                                                 6 t a                 z x c ",
"                  g ; r                                                 g a a                 %     ",
"                  g e r                                                 w a a                 .     ",
"                  g e r                                                 w a a                 .     ",
"                  g e r                                                 < a a                 %     ",
"                  v e r             &                                   < a a   &             b n   ",
"          &       v m r         & i >                 &                 < M + i >             N B   ",
"        > $ >     v m r         > >                 & $ >               < M @ $               V C   ",
"        > $ $     v Z A       > $                   > $ $               < M +                 S     ",
"        & &       g Z A     $ >                       &                 D @ M                 .     ",
"                  v F A     &                                           < M M                 .     ",
"                  v F G u @                                             D M M                 %     ",
"                  v F p 9 H J +                                         < M M                 .     ",
"                  v K L P I w u                                         w U M                 %     ",
"                  g H L O <                                             w m M                 .     ",
"                  v H L Y 4                                             v I M                 %     ",
"              >   v T 7 4 r                               &             < R M                 .     ",
"          & i >   v Y J         &                     & X $             w m M                 .     ",
"          > >     v E J       > $ >                   > >               w 6 + $               %     ",
"        > >       v E W       > $ $                 > $                 < a M $               .     ",
"      $ &         v t W                           $ >                   < M M                 %     ",
"      &           v Q W                           >                     < + +                 .     ",
"                  v ! 4                                                 D + +                 %     ",
"                  v p ~                                                 < + +                 .   ^ ",
"                  v y y                                                 < + +                 .   / ",
"                  g - 9                                                 < + +                 %   ( ",
"                  v ) 9                                                 D + +                 .   / ",
"                  v p 5           & >                                   D + + & >             % X , ",
"        & & &     v 2 D         & X >               & & &               < + @ X >             , a v ",
"        $ > >     v Q U         $ >                 > > >               w + s >               _ _ G ",
"        > $ >     v E D       $ >                   > $ >               v _ +                 U = 7 ",
"                  3 Y J     $ &                                         D ` +                 U v 9 ",
"                  3 H '     &                                           < ] +                 W = 7 ",
"                  3 F '                                                 G ] +                 _ [ 8 ",
"                  4 m r                                                 D { +                 } |  .",
"                  u ; r                                                 D 3 +                 ..X.o.",
"                o ! O.2 G D G G [ = = [ = = [ [ [ = [ [ [ [ G D w g v v Y g r i               +.@.#.",
"                f Q E $.%.&.&.%.*.=.q q -.;.;.-.:.>.>.,.O.; { ,.q %.&.%.:.m v (               <.1.2."
};
