/* XPM */
static char *_ab571f3f4a94e898c9578f4408f2ffcQbbAmF2u8xHH5Ux7[] = {
/* columns rows colors chars-per-pixel */
"50 49 202 2 ",
"   c black",
".  c #050B0B",
"X  c #310F12",
"o  c #38161A",
"O  c #0A2A29",
"+  c #082423",
"@  c #1B3938",
"#  c #4C1C23",
"$  c #581C24",
"%  c #55383D",
"&  c #62242C",
"*  c #6B363E",
"=  c #2F3C40",
"-  c #4A3F42",
";  c #5A3D41",
":  c #0D5250",
">  c #1E5355",
",  c #244243",
"<  c #354043",
"1  c #2A5656",
"2  c #3A6A6A",
"3  c #3F6766",
"4  c #297A78",
"5  c #317574",
"6  c #474B4F",
"7  c #534146",
"8  c #444E52",
"9  c #4C5156",
"0  c #495558",
"q  c #5D5459",
"w  c #53595B",
"e  c #654A4F",
"r  c #68464D",
"t  c #644952",
"y  c #6D4C52",
"u  c #744C55",
"i  c #7D4F54",
"p  c #60555A",
"a  c #66595C",
"s  c #78535D",
"d  c #75545D",
"f  c #75454D",
"g  c #4C605F",
"h  c #575E61",
"j  c #7E5E63",
"k  c #436466",
"l  c #4A6769",
"z  c #546365",
"x  c #526B6A",
"c  c #5E6A6B",
"v  c #437B7A",
"b  c #477473",
"n  c #5C7676",
"m  c #696162",
"M  c #676F70",
"N  c #746E70",
"B  c #6D7373",
"V  c #6E7A7C",
"C  c #627171",
"Z  c #747A7B",
"A  c #787678",
"S  c #873B46",
"D  c #80595F",
"F  c #96535B",
"G  c #9B565E",
"H  c #8B4C56",
"J  c #835C64",
"K  c #865962",
"L  c #985963",
"P  c #AA5A64",
"I  c #83656C",
"U  c #9E646C",
"Y  c #896D73",
"T  c #847B7D",
"R  c #857175",
"E  c #A2636F",
"W  c #BB626E",
"Q  c #AB6F79",
"!  c #B66A73",
"~  c #B1727B",
"^  c #CD6271",
"/  c #7C7F80",
"(  c #887F81",
")  c #C27D85",
"_  c #C37681",
"`  c #348E8C",
"'  c #448683",
"]  c #4D8886",
"[  c #55918F",
"{  c #599594",
"}  c #5E9F9D",
"|  c #588887",
" . c #7D8F8F",
".. c #768181",
"X. c #669292",
"o. c #729B9A",
"O. c #51A09D",
"+. c #48AEAB",
"@. c #5CA5A2",
"#. c #7DBCBA",
"$. c #7AB8B7",
"%. c #72ACAA",
"&. c #8E8284",
"*. c #839191",
"=. c #8B9898",
"-. c #979798",
";. c #95888A",
":. c #B9878D",
">. c #BC8D91",
",. c #A39699",
"<. c #B49091",
"1. c #BD9598",
"2. c #8BA9A8",
"3. c #92ADAC",
"4. c #97A0A0",
"5. c #80B1AF",
"6. c #85B9B7",
"7. c #A2A2A3",
"8. c #B6A4A6",
"9. c #A9AFB2",
"0. c #AABDBD",
"q. c #CA878F",
"w. c #CC8D94",
"e. c #EC8C98",
"r. c #EE909C",
"t. c #CD9EA4",
"y. c #D39BA2",
"u. c #DA9AA3",
"i. c #D8A8AE",
"p. c #D4ACB1",
"a. c #CEB0B4",
"s. c #C5BCBD",
"d. c #CBBBBE",
"f. c #C4B4B7",
"g. c #C4A7AC",
"h. c #E9A4AE",
"j. c #F9ABB7",
"k. c #E4B2B9",
"l. c #EAABB3",
"z. c #A7C0BF",
"x. c #B9BEC1",
"c. c #EBBBC2",
"v. c #FCB8C2",
"b. c #88C3C2",
"n. c #99C5C3",
"m. c #94CCCB",
"M. c #92C8C7",
"N. c #99D6D4",
"B. c #BDCFCE",
"V. c #BFC7C7",
"C. c #A8D1CF",
"Z. c #A5DDDB",
"A. c #BBD5D6",
"S. c #B1D5D8",
"D. c #B7D9DA",
"F. c #BAE0DF",
"G. c #A9EBE9",
"H. c #BAEDEC",
"J. c #BAE2E0",
"K. c #B7F1EF",
"L. c #D7C3C7",
"P. c #D8CFD0",
"I. c #C3D3D3",
"U. c #C9D8D7",
"Y. c #D9D7D8",
"T. c #EEC9CD",
"R. c #E4C0C4",
"E. c #F0C8CD",
"W. c #FCCCD3",
"Q. c #E7D8DB",
"!. c #F5D4D9",
"~. c #FBD5DB",
"^. c #FAD6DB",
"/. c #FDDEE2",
"(. c #C5E2E1",
"). c #C5EBEA",
"_. c #CAEAE9",
"`. c #D9E4E3",
"'. c #CAF0EF",
"]. c #CCF3F2",
"[. c #C9F6F4",
"{. c #DEFAF9",
"}. c #D6F7F6",
"|. c #E5EDED",
" X c #ECE7E8",
".X c #FBE2E6",
"XX c #FEE6E9",
"oX c #F2EBED",
"OX c #FBEBED",
"+X c #F5E4E6",
"@X c #E3F0EF",
"#X c #FEEFF1",
"$X c #F5EFF1",
"%X c #EAF4F4",
"&X c #E2FBFA",
"*X c #EBFAFA",
"=X c #E4F4F4",
"-X c #F2F6F6",
";X c #FBF3F4",
":X c #FDF7F8",
">X c #F4FBFB",
",X c #FDFDFD",
/* pixels */
",X,X,X,X,X,X,X,X,X,X,X,X,X,X,X,X,X,X,X,X,X,X,X,X,X,X,X,X,X,X,X,X,X,X,X,X,X,X,X,X,X,X,X,X,X,X,X,X,X,X",
",X,X,X,X,X,X,X,X,X,X,X,X,X,X,X,X,X,X,X,X,X,X,X,X,X,X,X,X,X,X,X,X,X,X,X,X,X,X,X,X,X,X,X,X,X,X,X,X,X,X",
",X,X,X,X,X,X,X,X,X,X,X,X,X,X,X,X,X,X,X,X,X,X,X,X,X,X,X,X,X,X,X,X,X,X,X,X,X,X,X,X,X,X,X,X,X,X,X,X,X,X",
",X,X,X,X,X,X,X,X,X,X,X,X,X,X,X,X,X,X,X[.C.5.{ b z 8 8 8 9 x | 3.B.*X,X,X,X,X,X,X,X,X,X,X,X,X,X,X,X,X",
",X,X,X,X,X,X,X,X,X,X,X,X,X,X,X_.6.n w U :.p.E..X;X:X:X>X,X;X+XL.8.T Z 4.Y.>X,X,X,X,X,X,X,X,X,X,X,X,X",
",X,X,X,X,X,X,X,X,X,X,X,X,X).] % ) !.;X>X:X>X>X,X:X:X,X:X:X:X>X:X>X,X,XQ.*.B Q.,X,X,X,X,X,X,X,X,X,X,X",
",X,X,X,X,X,X,X,X,X,X,X{.[ u y.OX:X>X:X:X>X>X:X:X>X:X:X>X,X:X:X,X>X:X,X:X,X`.*.&.;X,X,X,X,X,X,X,X,X,X",
",X,X,X,X,X,X,X,X*X,XK.: W ;X>X:X>X:X>X,X:X>X:X>X>X>X,X>X:X>X>X:X:X:X>X>X:X:X>X0.t oX,X,X,X,X,X,X,X,X",
",X,X,X,X,Xb.b 0 j n - V H :X>X,X>X:X:X,X,X:X:X>X:X,X>X:X,X:X>X:X>X:X,X:X>X:X,X>XU.m OX,X,X,X,X,X,X,X",
",X,X,X,X&X` = l.,XJ.j 6.d ;X:X>X,X:X>X>X>X>X:X,X:X>X:X,X>X:X>X,X:X,X>X:X>X,X:X>X>XC.i :X,X,X,X,X,X,X",
",X,X,X,XJ.> w p.(.x.y ,Xl !.:X,X:X>X:X:X:X:X>X:X:X:X>X>X:X>X:X:X:X>X:X>X:X:X,X:X:X>X[ >.,X,X,X,X,X,X",
",X,X,X,X}.5 % ,X[.4 U 4 S OX>X:X,X:X>X,X:X>X:X:X>X,X:X:X:X,X:X>X:X>X,X:X:X>X>X:X>X:X>Xz XX,X,X,X,X,X",
",X,X,X,X>XX.= < - h -.< ~.:X>X>X>X>X:X:X:X:X>X>X:X:X:X>X>X>X:X:X:X>X:X:X>X:X,X:X,X:X>X%.i.,X,X,X,X,X",
",X,X,X,X,X%X6.$ E.;X0.y.>X,X:X'./ +X:X>X>X:X:X,X>X>X,X:X:X,X,X>X:X>X,X>X,X:X>X>X:X>X:X(.J ;X,X,X,X,X",
",X,X,X,X,X,X@.^ ,X:X:X:X:X:X:X>Xz.N L.>X>X:X:X>X:X,X>X:X:X,X:X>X:X,X>X,X:X>X>X:X>X>X:X{.t !.,X,X,X,X",
",X,X,X,X,X,Xv j.,X>X>X,X:X>X>X,X:X|.*.;.oX>X,X:X:X>X,X:X>X>X:X:X>X:X:X>X:X:X:X,X:X:X:X>Xx i.,X,X,X,X",
",X,X,X,X,X>Xz ~.,X:X,X>X:X>X>X,X:X:X>X4.A Q.:X>X:X>X:X:X:X:X>X:X:X:X>X>X:X:X:X,X>X>X:X,X' w.,X,X,X,X",
",X,X,X,X,X,Xz ~.>X>X:X:X,X:X:X:X>XF.|.>X`.V ,.:X>X:X>X>X>X:X>X,X>X:X:X,X,X>X>X:X:X:X>X:X] q.,X,X,X,X",
",X,X,X,X,X,Xz W.:X:X>X:X>X:X:X>X&X@ . C Y.:X2.R oX*Xv d.:X>X:X:X>X>X>X:X>X>X:X:X:X:X:X,X' w.,X,X,X,X",
",X,X,X,X,X,Xv j.:X>X:X,X>X:X:X>X:XZ.+   o .X:XI.B f.v Y A Q.:X>X>Xz XX:X:X:X,X>X>X>X:X>Xb u.,X,X,X,X",
",X,X,X,X,X,X[ r.,X:X>X:X:X>X:X,X>XG.O   X /.,X>X|.V , l.I.N s.:X>Xb v.>X:X:X:X>X,X:X>X*Xw k.,X,X,X,X",
",X,X,X,X,X,X#.P >X:X>X,X,X:X>X:X:XG.O   X ^.:X>X>X-XI.T.>X%X=.T Q.[ e.,X>X>X,X:X:X>X:X'.r ^.,X,X,X,X",
",X,X,X,X,X,XK.& :X>X:X:X:X>X>X:X,X}.,   # .X,X:X:X:X:X:X>X:X>XI.w v ^ >X,X:X>X:X,X:X>XN.L ;X,X,X,X,X",
",X,X,X,X,X,X>X1 ^.,X:X>X,X>X:X,X:X>X Xg.T.>X>X:X:X>X>X:X,X:X>X:X-X .! :X:X>X,X:X>X:X:X} u.,X,X,X,X,X",
",X,X,X,X,X,X,X#.:.,X:X>X:X>X:X>X>X:X,X:X,X:X:X>X:X>X>X:X:X,X>X:X:X>X:X,X:X>X:X>X:X>X{.9 /.,X,X,X,X,X",
",X,X,X,X,X,X,X*Xq OX:X,X>X:X,X:X,X:X>X>X>X>X:X:X,X:X:X>X>X:X>X:X>X:X:X>X:X:X:X>X:X,X+.P ,X,X,X,X,X,X",
",X,X,X,X,X,X,X,X5.~ :X>X,X:X>X>X:X>X:X:X:X:X*Xm.n.n.n.n.n.n.;X>X:X,X>X:X>X:X:X,X>XG.$ /.,X,X,X,X,X,X",
",X,X,X,X,X,X,X,X*Xx a.,X:X>X,X:X,X:X>X,X:X>X>X8.<.<.<.<.<.1.k.:X>X:X,X>X,X>X>X:X}.k h.,X,X,X,X,X,X,X",
",X,X,X,X,X,X,X,X,X=XC a.:X>X>X:X>X>X:X,X:X>X:X:X:X>X>X:X:X:X>X:X:X,X:X:X,X:X>X'.2 ) ,X,X,X,X,X,X,X,X",
",X,X,X,X,X,X,X,X,X,X`.c f.:X:X:X:X:X:X>X:X>X,X>X:X,X:X:X>X,X>X,X>X>X>X,X:X,XK.l ! ;X,X,X,X,X,X,X,X,X",
",X,X,X,X,X,X,X,X,X,X,X,X .N %X>X:X>X:X>X:X,X>X:X>X,X,X>X:X>X:X:X:X:X:X>X*X$.# h.,X,X,X,X,X,X,X,X,X,X",
",X,X,X,X,X,X,X,X,X,X,X,X,XU...4.Y.-X,X:X>X:X,X:X>X:X:X>X:X,X:X>X>X*X(.%.l U .X,X,X,X,X,X,X,X,X,X,X,X",
",X,X,X,X,X,X,X,X,X,X,X,X,X,X,XY.7...Z =.n.U.@X>X:X:X:X>X>X*XM.o.n a I y..X,X,X,X,X,X,X,X,X,X,X,X,X,X",
",X,X,X,X,X,X,X,X,X,X,X,X,X,X,X,X,XoXP.8.=.= Q ,X,X>X,X:X:X>X%.* p.Q.;X,X,X,X,X,X,X,X,X,X,X,X,X,X,X,X",
",X,X,X,X,X,X,X,X,X,X,X,X,X,X,X,X,X,X,X,X].u Q.P.>X:X>X:X*X9.*Xq OX,X,X,X,X,X,X,X,X,X,X,X,X,X,X,X,X,X",
",X,X,X,X,X,X,X,X,X,X,X,X,X,X,X,X,X,X,X,X].s S.F :X,X>X:X{.t %Xq XX,X,X,X,X,X,X,X,X,X,X,X,X,X,X,X,X,X",
",X,X,X,X,X,X,X,X,X,X,X,X,X,X,X,X,X,X,X,X).j S.F ,X>X>X:X&Xt *Xq XX,X,X,X,X,X,X,X,X,X,X,X,X,X,X,X,X,X",
",X,X,X,X,X,X,X,X,X,X,X,X,X,X,X,X,X,X,X,X).j S.F ,X:X:X,X&Xt =Xq XX,X,X,X,X,X,X,X,X,X,X,X,X,X,X,X,X,X",
",X,X,X,X,X,X,X,X,X,X,X,X,X,X,X,X,X,X,X,X).J S.F >X>X:X>X{.t *Xq XX,X,X,X,X,X,X,X,X,X,X,X,X,X,X,X,X,X",
",X,X,X,X,X,X,X,X,X,X,X,X,X,X,X,X,X,X,X,X_.d m.G :X,X>X:X*Xw A.e XX,X,X,X,X,X,X,X,X,X,X,X,X,X,X,X,X,X",
",X,X,X,X,X,X,X,X,X,X,X,X,X,X,X,X,X,X,X,X>X2 r k.>X>X:X:X].6 &.u.,X,X,X,X,X,X,X,X,X,X,X,X,X,X,X,X,X,X",
",X,X,X,X,X,X,X,X,X,X,X,X,X,X,X,X,X,X,X,X}.7 c.>X:X:X>X*X} _ ,X,X,X,X,X,X,X,X,X,X,X,X,X,X,X,X,X,X,X,X",
",X,X,X,X,X,X,X,X,X,X,X,X,X,X,X,X,X,X,XH.2 ) ;X,X,X:X&X} f +X,X,X,X,X,X,X,X,X,X,X,X,X,X,X,X,X,X,X,X,X",
",X,X,X,X,X,X,X,X,X,X,X,X,X,X,X,X,X,X,X@XZ B 3.I.D.#.3 P .X,X,X,X,X,X,X,X,X,X,X,X,X,X,X,X,X,X,X,X,X,X",
",X,X,X,X,X,X,X,X,X,X,X,X,X,X,X,X,X,X,X,X,X Xd.,.-.w.L.:X,X,X,X,X,X,X,X,X,X,X,X,X,X,X,X,X,X,X,X,X,X,X",
",X,X,X,X,X,X,X,X,X,X,X,X,X,X,X,X,X,X,X,X,X,X,X,X,X,X,X,X,X,X,X,X,X,X,X,X,X,X,X,X,X,X,X,X,X,X,X,X,X,X",
",X,X,X,X,X,X,X,X,X,X,X,X,X,X,X,X,X,X,X,X,X,X,X,X,X,X,X,X,X,X,X,X,X,X,X,X,X,X,X,X,X,X,X,X,X,X,X,X,X,X",
",X,X,X,X,X,X,X,X,X,X,X,X,X,X,X,X,X,X,X,X,X,X,X,X,X,X,X,X,X,X,X,X,X,X,X,X,X,X,X,X,X,X,X,X,X,X,X,X,X,X",
",X,X,X,X,X,X,X,X,X,X,X,X,X,X,X,X,X,X,X,X,X,X,X,X,X,X,X,X,X,X,X,X,X,X,X,X,X,X,X,X,X,X,X,X,X,X,X,X,X,X"
};
