/* XPM */
static char *_5e21c5867c44624dd11c0e4fa4821deV6zsg5XlrWDiTZy0[] = {
/* columns rows colors chars-per-pixel */
"50 50 211 2 ",
"   c #BE5602",
".  c #C35D03",
"X  c #CF5F07",
"o  c #CF5E08",
"O  c #C05702",
"+  c #D05F07",
"@  c #DF5D03",
"#  c #DE5502",
"$  c #E55A02",
"%  c #C66302",
"&  c #C96402",
"*  c #C96D0B",
"=  c #C96A06",
"-  c #D16207",
";  c #D66C06",
":  c #D96F06",
">  c #CC7101",
",  c #DA7505",
"<  c #DD7C05",
"1  c #D6750A",
"2  c #D57807",
"3  c #DD6413",
"4  c #D97910",
"5  c #EC6205",
"6  c #E66906",
"7  c #F26702",
"8  c #F56C03",
"9  c #F77302",
"0  c #F87601",
"q  c #E16B18",
"w  c #E57416",
"e  c #E77E3A",
"r  c #DD8304",
"t  c #DB8C03",
"y  c #D58C1A",
"u  c #DB9418",
"i  c #E58504",
"p  c #E98600",
"a  c #E48A04",
"s  c #EB8B01",
"d  c #E5890A",
"f  c #F98303",
"g  c #F98B01",
"h  c #E49203",
"j  c #EE9201",
"k  c #EA9D03",
"l  c #E5920A",
"z  c #E99908",
"x  c #F19500",
"c  c #FA9501",
"v  c #F39B01",
"b  c #FB9F02",
"n  c #EC8F1F",
"m  c #E49A12",
"M  c #E29418",
"N  c #FA9B11",
"B  c #EBA302",
"V  c #EEAB02",
"C  c #F5A301",
"Z  c #FAA401",
"A  c #F5AC02",
"S  c #FCAC01",
"D  c #F6A80C",
"F  c #EEB202",
"G  c #EEBA07",
"H  c #F3B302",
"J  c #FCB301",
"K  c #F3BC02",
"L  c #FCBB02",
"P  c #F4B209",
"I  c #FBB60A",
"U  c #ECA814",
"Y  c #FAAF18",
"T  c #F2AA14",
"R  c #F0B718",
"E  c #FCBF1A",
"W  c #F1B715",
"Q  c #D7942C",
"!  c #F88D2E",
"~  c #F99D37",
"^  c #F6AC24",
"/  c #F4B329",
"(  c #FDBD24",
")  c #F2AD30",
"_  c #F6C303",
"`  c #FEC402",
"'  c #F3C904",
"]  c #FECB02",
"[  c #FCC40B",
"{  c #FCCE0A",
"}  c #FFD502",
"|  c #FEDB02",
" . c #FED40B",
".. c #FFDC0C",
"X. c #FAC412",
"o. c #FBCB13",
"O. c #FBCD1B",
"+. c #F9C41B",
"@. c #FDD315",
"#. c #FEDC13",
"$. c #FED51A",
"%. c #FCDB1C",
"&. c #FEE302",
"*. c #FFEA01",
"=. c #FFE20D",
"-. c #FFEC0C",
";. c #FFE314",
":. c #FFEB12",
">. c #FFE21A",
",. c #FEEC1C",
"<. c #EAC02D",
"1. c #FDC922",
"2. c #FECF2F",
"3. c #F5C426",
"4. c #FDD324",
"5. c #FEDD25",
"6. c #FEDD2C",
"7. c #FAD52A",
"8. c #FDCA3A",
"9. c #FED632",
"0. c #FEDC34",
"q. c #FCD73E",
"w. c #FEE525",
"e. c #FEEA25",
"r. c #FDE32D",
"t. c #FFEB2B",
"y. c #FEEB35",
"u. c #FEE43A",
"i. c #FEED3B",
"p. c #ED9D49",
"a. c #F69641",
"s. c #E78A51",
"d. c #F59F59",
"f. c #E68448",
"g. c #F6AC45",
"h. c #F8BC4C",
"j. c #E59767",
"k. c #F3AB77",
"l. c #F0CF4E",
"z. c #F6C941",
"x. c #FCD444",
"c. c #F5DA4E",
"v. c #FCDA48",
"b. c #FCCD53",
"n. c #F6D654",
"m. c #FEE544",
"M. c #FDEB43",
"N. c #FCE349",
"B. c #FCED4A",
"V. c #FFF04D",
"C. c #FDE355",
"Z. c #FEEB53",
"A. c #FCEB5D",
"S. c #FFF154",
"D. c #FFF25C",
"F. c #F9C464",
"G. c #FBDE63",
"H. c #F7CD76",
"J. c #FBD277",
"K. c #FCEC63",
"L. c #FDE46C",
"P. c #FDE560",
"I. c #FFF365",
"U. c #FEF268",
"Y. c #F9EF79",
"T. c #FAF17F",
"R. c #EFBF88",
"E. c #F4BE96",
"W. c #FBD581",
"Q. c #F8DD8F",
"!. c #EEC29D",
"~. c #FAED85",
"^. c #FBE78A",
"/. c #FDF18B",
"(. c #FDF181",
"). c #F9E393",
"_. c #FAEC93",
"`. c #F9E699",
"'. c #F8ED98",
"]. c #F8F199",
"[. c #F6D1A2",
"{. c #F8DBB0",
"}. c #EACBB8",
"|. c #F8E7A7",
" X c #F7E9A9",
".X c #FDF5AA",
"XX c #F9ECB5",
"oX c #F7EBB6",
"OX c #F7F0B9",
"+X c #F2DCCB",
"@X c #F7EBC7",
"#X c #F7EBC4",
"$X c #F7F4CB",
"%X c #F5ECDC",
"&X c #F3E1D6",
"*X c #F7F4D4",
"=X c #F6F2DC",
"-X c #F8F1D7",
";X c #EFEFEF",
":X c #F6EFE5",
">X c #F5EEE9",
",X c #F5F3EC",
"<X c #F5F4E6",
"1X c #F3F3F3",
"2X c gray95",
"3X c #F1F1F1",
"4X c #F5F4F3",
"5X c #F4F4F4",
"6X c gray96",
"7X c #F5F5F4",
"8X c #F5F5F5",
/* pixels */
"6X6X6X6X6X6X6X6X6X6X6X6X6X6X6X6X6X6X6X6X6X6X6X6X6X6X7X6X6X6X6X6X6X6X6X6X6X6X6X6X6X6X6X6X6X6X6X6X6X6X",
"6X6X6X6X6X6X6X6X6X6X6X6X6X6X6X6X6X6X6X6X6X6X6X6X6X7X6X6X7X6X6X6X6X6X6X6X6X6X6X6X6X6X6X6X6X6X6X6X6X6X",
"6X6X1X6X6X6X6X6X6X6X6X6X6X6X6X6X6X6X6X6X6X6X7X7X7X6X6X6X6X6X6X6X6X6X6X6X6X6X6X6X6X6X6X6X6X6X6X6X6X6X",
"6X6X6X6X6X6X6X6X6X6X6X6X6X6X6X6X6X6X6X6X6X6X7X7X6X6X6X6X6X6X1X6X6X6X6X6X6X6X6X6X6X6X6X6X6X6X6X6X6X6X",
"6X6X6X6X1X6X6X6X4X6X6X6X6X6X6X6X6X6X1X1X6X1X7X,X,X:X:X6X6X6X6X6X6X6X6X2X6X6X6X6X6X6X6X6X6X6X6X6X1X6X",
"6X6X6X6X6X6X6X;X1X6X6X6X6X6X6X6X6X6X=X`.n.3.` ` ` J A v n p.!.>X6X1X3X3X6X6X6X6X6X6X6X6X6X6X1X3X3X1X",
"6X6X6X6X6X6X;X1X4X6X6X6X6X6X6X,X).4.}  .{ { ] ] ] ` ] ` _ T w @ f.}.4X1X6X6X6X6X6X6X6X6X6X6X1X;X2X6X",
"6X6X6X6X6X;X1X1X6X6X6X6X6X7X).#.....#.@.@.{ ] ] ] ` ` ` ` [ O.h.q $ e +X6X6X6X6X6X6X6X6X6X1X3X1X6X6X",
"6X6X6X6X1X1X1X6X6X6X6X6X-X9.;.;.>.>.%.%.#.@.{ ] ] ] ` ` ` ] ` ` x.p.$ 5 k.4X6X6X6X6X6X6X1X1X4X6X6X6X",
"6X6X6X6X6X6X7X7X6X7X7XXX5.y.t.t.t.w.w.O.X.I A Z H J ` ` ` ` ` ` ` 4.F.5 5 ~ >X6X6X6X6X6X1X6X6X6X6X6X",
"6X6X6X6X6X6X6X6X6X6X|.6.V.M.M.y.7.u j v v v x j s s s x J ] ` ` ` ` 1.J.8 8 ! ,X6X6X6X6X6X6X6X6X6X6X",
"6X6X6X6X6X6X6X6X6XXX6.D.D.Z.M.u a S b b v x x s s s s s p j L ` ] ` ` 9.J.f f ~ 4X6X1X6X6X6X6X6X6X6X",
"6X6X6X6X6X6X6X6X=X4.U.I.I.c.* v S Z C C v v x j s s s s p s p A ` ` ` ] n.b.Z Z b.2X1X1X6X6X6X6X6X6X",
"6X6X6X6X6X6X6X7Xq.I.U.U.l.% Z S S Z Z Z C v v j x s s s p s p p C ` ` ` { /.1.` L oX6X6X6X6X6X6X6X6X",
"6X6X6X6X6X6X6X`.Z.U.U.n.. C J S S S Z Z Z [ K p j s s s s p p p p A ` ` ] $./.` ` O.4X1X6X6X6X6X6X6X",
"6X6X6X6X6X6X,XN.I.U.K.* v S S S S S S I J w. .z C x s s p s p p p s J ] ] { K.8.J J W.6X6X6X6X6X6X6X",
"6X6X6X6X1X1X'.S.D.I.Q i J J S J S E %.*.*.*.} } | } J s s s p p p < j ] ] } @./.c c N ,X6X6X6X6X6X6X",
"6X6X6X6X1X2XN.B.S.c.. J S S S S 2.,.*.*.*.*.| } | | } H s s p p p p p Z } ] } K.~ g g [.6X6X6X6X6X6X",
"6X6X6X6X6X$Xy.B.B.y h L J J S E ,.*.*.*.| G K ] | | ] ` k s a p p p i d ] } } 0.W.g c ~ 1X1X6X1X;X1X",
"6X6X6X6X7X~.y.B.M.  L L J S S 5.*.*.*.&.2 +._ , ' } ] H B s p p s i i i K } } ..].Z Z D 4X6X6X;X1X1X",
"6X6X6X6X7XN.y.M./ % _ _ L J S :.*.*.*.' r 5.' , a B h r , p s p i d i s C } | } (.( J J #X4X;X3X1X6X",
"6X6X6X6X1Xw.t.i.y t ` ` L J J =.*.*.*.&.z %.] , s p s s s s s p i a i s s  ... .K.x.` ` Q.1X1X1X6X6X",
"6X6X6X6X<X-.,.t.* B ] ` ` L J #.&.*.*.*.*.| _ < j v x j j s s p p p p s s  .#.;.Z.L.| } G.1X6X6X6X6X",
"6X6X6X1X*X*.-.,.% V ] ] ] L L P =.&.&.*.*.*.| } _ k p s x s s s p s p s a o.>.>.N./.:.#.N.6X6X6X6X6X",
"6X6X6X6X$X*.-.-.  V } } { ` L L U #.&.*.*.*.&.| } } ] k p s s s s s s p s X.w.>.M..XK.K.~.6X6X6X6X6X",
"6X7X6X6X$X*.*.*.. V } } } ] ` ` H l E 6.;.*.&.| | | ] ] k i j j s s s s s o.w.w.u..XY.Y.].6X6X6X6X6X",
"1X6X6X6X*X*.*.*.% B } } } } ] ] ` L v a a R %...| &.| ] ` < x s s s s s s O.t.t.M.~.Z.A._.6X6X6X6X6X",
"6X6X6X6X<X*.*.*.2 a } } } } { ] ` ` L J A @.K m %.&.| } ` h s x j j s s s 5.y.y.M.P.6.r.~.6X6X6X6X6X",
"6X7X6X6X6X:.*.*.t 1 } } } }  .@.$.$.$.P J #.} ; 4 | | } ` k < v x s s s j i.M.M.r.9.{ { `.6X6X6X6X6X",
"6X6X6X6X6Xi.*.*.F o } } } } @.&.*.*.*._ A ;.| , v } &.} _ k p v x j s s D V.V.V.$.1.` L @X6X6X6X6X6X",
"6X6X6X6X6XT.*.*.&.o H } | } ] >.&.&.*.*.t #.| < L &.&.} H a j v x j j s 3.Z.S.V.4.J L I 7X6X6X6X6X6X",
"6X6X6X6X6X$X*.*.*.r r } } } } W ..&.&.*.*.} ' G *.&.} ` B : b v x j s s Z.D.A.u.8.Z Z h.6X1X6X6X1X1X",
"6X6X6X6X6X6Xe.-.*.' % _ } } } _ R  .} | | | &.&.| } ] V r s C v x x d / D.D.D.$.^ c c {.6X6X6X1X3X1X",
"6X6X6X6X1X1X].*.-.*.r r } } } } _ z X.{ ' { ] } ] _ A r s Z v v x s l K.I.I.D.O.S S Y 4X6X6X1X;X1X6X",
"6X6X6X6X1X2X<X,.*.*.|   V } } } } ] l < u P H k h < , v S S v x l s 8.U.I.I.u.` ` ` Q.6X6X1X;X1X1X6X",
"6X6X6X6X2X2X1X].*.*.*.' - P } } | } { { _ o.H , C J L H A Z v j s / U.U.I.I.{ ] ] $.4X6X6X1X1X1X6X6X",
"6X6X6X6X6X6X6X7Xi.*.*.*.V - B } } } } } ] @.K r ] L L J S C k x M I.I.U.U.r.L L L #X6X6X1X6X6X6X6X6X",
"6X6X6X6X6X6X6X6X=X-.*.&.&.F o r { } } ] ] ] ] ` ` ` L H A C z u A.I.I.U.m.J Z S H.6X6X1X6X6X6X6X6X6X",
"6X6X6X6X6X6X6X6X6XOX-.&.&.&.' 1 - k ] ] ] ] ] ` ` K L A v r / S.D.D.I.m.J g g g.7X7X7X6X6X6X6X6X6X6X",
"6X6X6X6X6X6X6X6X6X6X X&.&.&.} } V : - r B H K K H B r > u r.i.V.S.D.u.H 9 0 a.1X7X7X6X6X6X6X6X6X6X6X",
"6X6X6X6X6X6X6X6X6X6X7XoX=.&.| | | } _ k < > % % > t G #.e.y.M.V.S.6.C 7 8 d.7X6X1X6X6X6X6X6X6X6X6X6X",
"6X6X6X6X6X6X6X6X6X6X7X7X%X0.| | } } } } } } | } | } ..>.w.y.i.i.$.p $ 5 E.6X7X1X6X7X6X6X6X6X6X6X6X6X",
"6X6X6X6X6X6X6X6X6X6X6X7X6X7X).$.} } } } } } | } | } ..>.w.y.$.C @ # s.%X7X7X6X6X6X6X1X6X6X6X6X6X6X6X",
"6X6X6X6X6X6X6X6X6X6X7X6X6X6X6X,X`.9.} } | } } | } }  .#.{ C : 3 j.&X6X6X6X4X6X6X6X6X6X6X6X6X6X6X6X6X",
"6X6X6X6X6X6X6X1X6X1X6X6X6X6X6X6X6X6X:X XG.v.9.7.$.1.+./ g.R.+X7X4X6X6X6X1X6X6X6X6X6X6X6X6X6X6X6X6X6X",
"6X6X6X6X6X6X6X1X1X6X6X6X6X6X6X6X6X6X1X6X6X1X6X6X6X6X6X6X6X6X7X7X1X6X4X3X6X6X6X6X6X6X6X6X6X1X6X6X3X6X",
"6X6X6X6X6X6X1X3X1X1X6X6X6X6X6X6X6X6X1X1X2X1X6X6X6X6X6X6X6X6X6X6X1X1X;X1X6X6X6X6X6X6X6X6X6X6X6X3X1X1X",
"6X6X6X6X6X1X;X1X6X6X6X6X6X6X6X6X6X6X6X3X3X1X6X6X6X6X6X6X6X6X6X6X1X;X4X1X6X6X6X6X6X6X6X6X6X1X3X3X1X6X",
"6X6X6X6X1X3X1X1X6X6X6X6X6X6X6X6X6X1X1X1X1X6X6X6X6X6X6X6X6X6X6X1X3X1X1X6X6X6X6X6X6X6X6X6X6X1X1X1X1X6X",
"6X6X6X6X6X1X6X6X6X6X6X6X6X6X6X6X6X6X1X6X1X6X6X6X6X6X6X6X6X6X6X1X1X6X6X6X6X6X6X6X6X6X6X6X6X1X1X6X6X1X"
};
