/* XPM */
static char *_874fa2950734306905cd1130d5a0db5gZVjx0UirmZnTMQq[] = {
/* columns rows colors chars-per-pixel */
"49 50 234 2 ",
"   c gray97",
".  c gray95",
"X  c gray70",
"o  c #E9E9E9",
"O  c gray77",
"+  c #F1F1F1",
"@  c #C8C8C8",
"#  c gray92",
"$  c #F6F6F6",
"%  c #F4F4F4",
"&  c #E2E2E2",
"*  c #EFEFEF",
"=  c #B1B1B1",
"-  c #888888",
";  c #E6E6E6",
":  c gray96",
">  c #D8D8D8",
",  c #B7B7B7",
"<  c gray36",
"1  c #D2D2D2",
"2  c #464646",
"3  c gray61",
"4  c #9D9D9D",
"5  c #515151",
"6  c gray87",
"7  c gray53",
"8  c #909090",
"9  c gray89",
"0  c gray60",
"q  c #868686",
"w  c gray72",
"e  c #EAEAEA",
"r  c gray56",
"t  c #BBBBBB",
"y  c gray33",
"u  c #B6B6B6",
"i  c gray74",
"p  c #9A9A9A",
"a  c gray47",
"s  c gainsboro",
"d  c gray75",
"f  c gray43",
"g  c gray52",
"h  c #A9A9A9",
"j  c gray39",
"k  c #D5D5D5",
"l  c #A4A4A4",
"z  c gray32",
"x  c #C5C5C5",
"c  c #ECECEC",
"v  c gray31",
"b  c gray62",
"n  c gray55",
"m  c #BCBCBC",
"M  c #505050",
"N  c #979797",
"B  c gray24",
"V  c #B9B9B9",
"C  c #6D6D6D",
"Z  c #848484",
"A  c #565656",
"S  c #AFAFAF",
"D  c #7C7C7C",
"F  c #CDCDCD",
"G  c #6C6C6C",
"H  c #7E7E7E",
"J  c #A2A2A2",
"K  c #484848",
"L  c gray38",
"P  c #C6C6C6",
"I  c gray45",
"U  c gray35",
"Y  c gray44",
"T  c #747474",
"R  c gray",
"E  c #6A6A6A",
"W  c #727272",
"Q  c gray42",
"!  c gray88",
"~  c #9F9F9F",
"^  c gray23",
"/  c gray69",
"(  c #929292",
")  c #8B8B8B",
"_  c gray46",
"`  c #5D5D5D",
"'  c #252525",
"]  c #6F6F6F",
"[  c #777777",
"{  c gray57",
"}  c #818181",
"|  c gray26",
" . c gray49",
".. c #717171",
"X. c #8D8D8D",
"o. c #989898",
"O. c #323232",
"+. c gray86",
"@. c #8E8E8E",
"#. c #ACACAC",
"$. c #898989",
"%. c #585858",
"&. c #939393",
"*. c gray64",
"=. c gray54",
"-. c #676767",
";. c gray58",
":. c #5B5B5B",
">. c #A0A0A0",
",. c #787879",
"<. c #838383",
"1. c #626262",
"2. c #808080",
"3. c DimGray",
"4. c #7B7B7B",
"5. c gray48",
"6. c gray25",
"7. c #4B4B4B",
"8. c gray28",
"9. c #B4B4B4",
"0. c gray30",
"q. c #AEAEAE",
"w. c #737374",
"e. c #B2B2B2",
"r. c gray14",
"t. c #797979",
"y. c gray34",
"u. c #767676",
"i. c #D7D7D7",
"p. c #E1E1E1",
"a. c gray51",
"s. c #3E3E3E",
"d. c gray50",
"f. c gray94",
"g. c #767677",
"h. c #5A5A5A",
"j. c gray40",
"k. c #929293",
"l. c #555555",
"z. c #9B9B9B",
"x. c #F3F3F3",
"c. c #CACACA",
"v. c #4E4E4E",
"b. c gray93",
"n. c #5F5F5F",
"m. c #A5A5A5",
"M. c #A7A7A7",
"N. c #2A2A2A",
"B. c gray37",
"V. c #686868",
"C. c #DFDFDF",
"Z. c #C3C3C3",
"A. c gray78",
"S. c #414141",
"D. c gray63",
"F. c #CFCFD0",
"G. c #C0C0C0",
"H. c #535353",
"J. c #494949",
"K. c #393939",
"L. c #606060",
"P. c #DDDDDD",
"I. c gray29",
"U. c #343434",
"Y. c gray79",
"T. c gray85",
"R. c #DADADA",
"E. c gray65",
"W. c #434343",
"Q. c #777778",
"!. c gray76",
"~. c #959595",
"^. c gray22",
"/. c gray80",
"(. c #E7E7E7",
"). c #646464",
"_. c gray27",
"`. c #515152",
"'. c #656565",
"]. c gray83",
"[. c gray66",
"{. c gray82",
"}. c gray81",
"|. c #AAAAAA",
" X c #444444",
".X c gray68",
"XX c gray84",
"oX c gray59",
"OX c #282828",
"+X c LightGray",
"@X c #4C4C4C",
"#X c #D9D9DA",
"$X c #C1C1C1",
"%X c #CBCBCB",
"&X c gray21",
"*X c gray73",
"=X c #CECECE",
"-X c #3C3C3C",
";X c gray91",
":X c gray71",
">X c #3F3F3F",
",X c #646465",
"<X c gray90",
"1X c gray67",
"2X c #151515",
"3X c #A8A8A9",
"4X c #2C2C2C",
"5X c #7F7F80",
"6X c #7D7D7E",
"7X c gray19",
"8X c gray18",
"9X c #D0D0D0",
"0X c #313131",
"qX c #EEEEEE",
"wX c #E4E4E4",
"eX c #373737",
"rX c #2D2D2D",
"tX c #3A3A3A",
"yX c #353535",
"uX c #222222",
"iX c #949495",
"pX c #9A9A9B",
"aX c #2F2F2F",
"sX c #A2A2A3",
"dX c gray17",
"fX c #5F5F60",
"gX c #818182",
"hX c #49494A",
"jX c #A0A0A1",
"kX c #959596",
"lX c #616162",
"zX c #7E7E7F",
"xX c #272727",
"cX c #838384",
/* pixels */
"          . X o O X + @ # $ %                   $   & *             $ $ = - ; :   + > :           ",
"          , < 1 2 3 4 5 6 7 8 9 0   q w e , + X r t y u i p # a s d f , g g h j k l z > x %       ",
"    c   o v b n j m M N 1 B V C Z V A S D v F G G D H J K g H L P I U Y k C T D R E D W Q c       ",
"  ! A $ ~ ^ / C ( ) L R _ ` R ' 1 _ ] ( [ 8 { } | S  ...z X.o. .D O O.+.@.^ #.X.$.D %.@.&.*.x     ",
"  =.G s z Z $.f l E ( 4 -.;.:.] >.p ,.T X.o.<.1.2.J 3.4.5.f h } ) >.- * 6. .J @.- 7. .( W 8.9..   ",
"e 6.h $.0.~ _ q X.Y q.w.Q e.r.R t.n f l E <.J y.@ ] ..u.U m W [ i.C p.d U P a.D ) s.u y a a q.d.f.",
"f.Y i z g.Z  .o.] $.N T ) h.f 8 = j. .n k.@.Z b h l.r M z.u f p q.z.x.j.c.9.Y 8 h.p - v.( j t.T x.",
"b.5.H n.n } } a.[ m.4.H M.N.t <.{ U i [ T q.W k B.[ V.3.C.Y E C.n.; Z.d.+.t.T ;.` A.S.D.y ` 0 u   ",
"F.Q G } H  .;.5.=.@.W 0 v 7 2.G.H.r r u.~ - t l J.&.K.i z.L.#.N b x.W P.) L p ` , 2.] p I.R u.p.C.",
"o.y.W D Z g a.[ >._ q [ U.X { $.z Y.T 5.m q > y } y.T Y.E f T.h.o i 0 R.y._ ) a A.I.m l.#.E.X  .$.",
"A <.G  .Z ) a ) ) I ~ W.3 Q.!.I.J $._ , E @ 0 0.~.^./.r n.t 7 E.* [ (.Z B.D.U c.Y X.4 5.G.t., L.M.",
"J { ).r <.D 4.~ Y $.T [ #.l u.n.@ T  .&.o.k _.) `.$.P '.q ].B.+ S [.{.v o.d.@.V 5 @ 3.}.=.S u.u.! ",
"+ E C a - 2.7 q I |. X.XW P _.M.g Y t L c r J.z.^ i.2.E 1 q 9.: C b. .y .Xz XXj.o.m.oXO r E.0  .: ",
"T.OXb Z  ._ 3 ..- <.W ;.0 5.A +XC D n h s @Xq A g c.G ) #X'.f.w ~ +.K p @X- t @X{.u.i.8 E.W ~.- C.",
">.%.5.5.a q Z C = M X $.i @X.X- 4..X< b.t.M o.^ > 7 j /.Q $Xf.W # [ y 3 B.+Xh.4 l E.%X) ) |.S.&XG.",
"XXd W t.D 0 j.( 2.) X.q.C ).F [ t.Y *X= s.~.2 ;.G.] N e.r : [.E.=X-Xl ^.1 l v.1 a.& $.J ( { &XW e ",
"  - ] $.$.4.f 9.y.= { - v d u.5.~ :.;Xl.L.n 8.R.2.T Z.u.& o ).. -.V.a Y c.W.#.4 , i &.Z D.OX~.@.  ",
";XB.t._ &.E >.4.b - E.n.u.R 2.5.M O b K X | M.X _ N o.m.$ X.u :X>X>.N.R.M %.F g ; <.z.z.A < } V > ",
"e.&Xo.N ..W :X,Xq.;. .] P W 5.Z ` 9 A a...0.T.H  ., ).<X=XL e B.f z 7 .XOX9.8 P e.;.} o.2 X C J.*.",
".Xm.I D j 1XW [.q z.1.E.|.{ a U.=XZ < J 2X/ M.a.N W l 9 J.i 3XB @.4XR.&X&.P 7 & } &.*. XoXZ U ] p.",
"$ 1X) 3.t.9.C |.oXW [ :XT t.L '.{.L.n >X1.].5.5X>.A <X~.[ 9 v.6X7Xp $.6.p.q {.m.p } 7 v p 8X~.Z $ ",
"x.2.[ V.m. .l $.oXG 4 &.X.Q 8Xi ) ).p r.O M.7 X.j.X.p.B.O E._.} 7XF I.- / $.! q ~.z.K X.` 6.X.G.  ",
"9X` ..n S f 1Xr a t.e.g 2.v %.Y.3.Z 8.D i.Z g =. X> 8  .i.y ]  X8 @.0.XX_ @ |.oX7 } _.D.>X*.[ e.(.",
"H n.T @ G h <.$.I D.- n A 7X!.H f X.0Xi.<.;.H K X.9X0.O I 5 ..y d %.&.[./ s g @.o.8.oXy <.8 ) B k ",
"L ( { H f l ) t.d.|.r ` 8..., t.} K r = g <.t.0.i.T <.1X7.W z ~ 4.'.k I qXD.0 q t.L.0 @XJ ..] _ f.",
"wXd.9.| h <.<.5.[.7 -  XJ.x W [ 2.| XXt.S a 5 z.t W.d ).U V.V.h ] >.~.i w g @.( y z.H.~. .] ;.~ R.",
"+Xq A N N - 5.q 4 oX7.H.2.~ - H W.o.0 q.-.-.3.9Xh.Z N y.).j *.[ Y 9X..# t.4 g _ Y { %.>.G Z 4., 7.",
"n <.eX.X} H } [.7 t.>XI m u.u.t.v 1 D ~.1.V.b J -X:XL ` u...~.5.M.a.P q.b g - j.p 0.4 W 4.|.X.Y E ",
"z 0.( [ q <.) ;.3 eXV.~ - oX2.7.l 7 i y -._ A.v.$.7 z V.] b u.a O _ <X[ ( <.[ D g L.N f ~ 2.o.1.e.",
"Z G *.$.H 4.M.<.7 2 t.*.5.[ u.y.=Xt.h >X8 ~.E.| #.n.y [ T X.~.8 q , e.b T 2.u.&.M N 5.[ J t.Y Y & ",
"9 4...Z d.$.&.*.>XD N } >.t.H.oX- c. Xd.C t y <.7 l.n.} *.5.I /.1.c f z.g  .d.q z z.[ 4 2.) @.7 $ ",
"*.C b 4.H 1X- D j 2.;.;.[ ] ` A.g 3 rX~.p 8 ` J ` 7.n  .'.l p ] Z.~ |.f I ) n _.p [ t.*.H I Z a F ",
"G u.Z H ( Z E.W.n ( q r Y < ~  .+X7XJ I G.j 7 _ J.f D a.#...i B.9 5.=.D b 2.5.h.X.2.~ 2.t.D.L 8Xp.",
"t x I a M.( 3.d.<.$.~ G G L., oXoXM 3 1XV.V.N <  XN d.<.oXJ U A.8 q.Q g.$.$.tX~.}  .J W @.X.S.W $ ",
"  =.E R g >.z ~.=.- =.f U M.] R.yXx ..=.a X.C S.<.H W 1XI 1XL.P.D H G *XD -.B.Z - 4 4.[ D.v.uX9X  ",
"(.0.@.=.0 %.0 H 2.E...).Y *.S <.t.iXD...3.Z < K b W o.8 d K =XZ 1X).@.7 - &X@.$.<.D.I 0 G 6.'.$X9X",
"Y.W.F a.X.L.o.q &.<.3.] |...T.6.k 4.a _ pXG 7X0 H I 9.) D ).{.g ] -.Y.t.O.B.<.;.p a I m.W.aX/ N.A.",
"f.p.q 1X0.E. .4.h E ] $.0 V q { *.X.D T d.H.7.l 3.4 - sXaXc.a.[.j.0 $.Z dX) X.a.4 Q 4 _ S.1.Z 7.c ",
"  s D L.1.p <.~.) 3.-.4 4.> M T.I [ 2.7 fXeXN D W , =.W T 9Xa.4.j.=X_ >XD H b { H u..X@Xz $.j $.$ ",
": X.$.&X*.H 2.E.C 3.=.- t d.m.J 2.7 T C v.A E.j.>.8 p 0.].<.z.l.h X.t.0X7 ~.7 o.j.D.4.@XW gXG /.$ ",
"R.] ^.N &.} o.H I Y ~.~ 9Xh.P.Y ..a.a.L 7XE.a u.u ) '.8 V <.3.T }.u.tX<.D *.r T _ S H.L. .t.[ S o ",
"q A H.E.} d.4 u.3.X.g A.G R N T &.t.1.s.u.~ f h ) N hXO Y ) j i g .._.a., 7 ~.B.[.[ h.C 4.q jXa.x.",
"r 2.0 [ - o.D Y I oXh X.Q T.Q _ t.t.:.@XO [ H S ( :.kX>.;.-.[ @ 4.-X=.} { ( Q t..Xl.Q Y n [ a.{.  ",
"f.D g ~ a.$.} j &.- i j F 7 ] { } B.y z.Z I 1X- N v.P 5.C G x  .C 0.H V } &.l.9...j.Q t.X.4.7 $   ",
"p.A $.2.2.$.Q W o.1XQ D.A.T [ [ t.h.'.E.u.a.J b l.4 z.T q d.e.} 0X( q q 1XL } |.M } j b T I T.    ",
"! %.]...] b z l d.#.8.c.a [ $.n 2 a n f ~ p 4.h 7.=XI _ V.d Q a K =.u 4.} 8.O 3.C [ '.h lXzX$     ",
"$ f.q.s.D.Q ).h 0 v q 0 <.f f Z  X2.X.~ ] Z q.E oX#.y ~.u.p J uX*._ <.R xXu.V | o.I.D.$.n.].      ",
"    =Xx /.S.d <.<.h.3 $.) %.$X4Xe.] C /.>X) P 1.P.%.d.D.u.q 7 M S cXr =.z }.B.f X.0.+X6.#.$       ",
"        9 =XZ.z &.E 5.@ B.h 1 <.x.- > wX8 wX# & 6 5.wXd N ;X_.].T L.; z > %Xy k a u ;XE.*         ",
"            wXx . A.wX$ %                                 $ wX  /.p.  qX  f.e   + $               "
};
