/* XPM */
static char * coin_xpm[] = {
"50 50 188 2",
"  	c #FFFFFF",
". 	c #FCFCFC",
"+ 	c #DFDFDF",
"@ 	c #F6F6F6",
"# 	c #FAFAFA",
"$ 	c #F9F9F9",
"% 	c #919191",
"& 	c #292929",
"* 	c #373737",
"= 	c #888888",
"- 	c #F7F7F7",
"; 	c #050505",
"> 	c #000000",
", 	c #808080",
"' 	c #F8F8F8",
") 	c #FEFEFE",
"! 	c #8C8C8C",
"~ 	c #4A4A4A",
"{ 	c #555555",
"] 	c #B8B8B8",
"^ 	c #828282",
"/ 	c #040404",
"( 	c #878787",
"_ 	c #2F2F2F",
": 	c #787878",
"< 	c #A1A1A1",
"[ 	c #FDFDFD",
"} 	c #B7B7B7",
"| 	c #202020",
"1 	c #252525",
"2 	c #D9D9D9",
"3 	c #F3F3F3",
"4 	c #B1B1B1",
"5 	c #333333",
"6 	c #737373",
"7 	c #B2B2B2",
"8 	c #A7A7A7",
"9 	c #474747",
"0 	c #101010",
"a 	c #FBFBFB",
"b 	c #020202",
"c 	c #1A1A1A",
"d 	c #424242",
"e 	c #9E9E9E",
"f 	c #DDDDDD",
"g 	c #DEDEDE",
"h 	c #BABABA",
"i 	c #5B5B5B",
"j 	c #636363",
"k 	c #434343",
"l 	c #E2E2E2",
"m 	c #222222",
"n 	c #2C2C2C",
"o 	c #818181",
"p 	c #191919",
"q 	c #9B9B9B",
"r 	c #CACACA",
"s 	c #D0D0D0",
"t 	c #D5D5D5",
"u 	c #D4D4D4",
"v 	c #D2D2D2",
"w 	c #D1D1D1",
"x 	c #CCCCCC",
"y 	c #262626",
"z 	c #797979",
"A 	c #DADADA",
"B 	c #3B3B3B",
"C 	c #C6C6C6",
"D 	c #CBCBCB",
"E 	c #CFCFCF",
"F 	c #CECECE",
"G 	c #C8C8C8",
"H 	c #A8A8A8",
"I 	c #1C1C1C",
"J 	c #E9E9E9",
"K 	c #F4F4F4",
"L 	c #0E0E0E",
"M 	c #626262",
"N 	c #C9C9C9",
"O 	c #C7C7C7",
"P 	c #C5C5C5",
"Q 	c #D3D3D3",
"R 	c #989898",
"S 	c #2D2D2D",
"T 	c #232323",
"U 	c #A0A0A0",
"V 	c #B0B0B0",
"W 	c #D8D8D8",
"X 	c #2B2B2B",
"Y 	c #3C3C3C",
"Z 	c #AFAFAF",
"` 	c #616161",
" .	c #CDCDCD",
"..	c #353535",
"+.	c #E5E5E5",
"@.	c #E0E0E0",
"#.	c #A6A6A6",
"$.	c #B6B6B6",
"%.	c #DCDCDC",
"&.	c #E3E3E3",
"*.	c #343434",
"=.	c #898989",
"-.	c #212121",
";.	c #B9B9B9",
">.	c #A2A2A2",
",.	c #A9A9A9",
"'.	c #303030",
").	c #EFEFEF",
"!.	c #F2F2F2",
"~.	c #757575",
"{.	c #747474",
"].	c #393939",
"^.	c #E1E1E1",
"/.	c #3D3D3D",
"(.	c #BDBDBD",
"_.	c #D6D6D6",
":.	c #323232",
"<.	c #EEEEEE",
"[.	c #ADADAD",
"}.	c #6F6F6F",
"|.	c #D7D7D7",
"1.	c #959595",
"2.	c #383838",
"3.	c #F5F5F5",
"4.	c #B5B5B5",
"5.	c #313131",
"6.	c #131313",
"7.	c #4C4C4C",
"8.	c #767676",
"9.	c #E8E8E8",
"0.	c #A3A3A3",
"a.	c #9F9F9F",
"b.	c #979797",
"c.	c #595959",
"d.	c #B4B4B4",
"e.	c #DBDBDB",
"f.	c #ABABAB",
"g.	c #838383",
"h.	c #727272",
"i.	c #1D1D1D",
"j.	c #484848",
"k.	c #929292",
"l.	c #494949",
"m.	c #717171",
"n.	c #E6E6E6",
"o.	c #656565",
"p.	c #5E5E5E",
"q.	c #C1C1C1",
"r.	c #EDEDED",
"s.	c #454545",
"t.	c #C4C4C4",
"u.	c #C2C2C2",
"v.	c #4F4F4F",
"w.	c #6E6E6E",
"x.	c #7F7F7F",
"y.	c #AAAAAA",
"z.	c #9A9A9A",
"A.	c #363636",
"B.	c #BFBFBF",
"C.	c #969696",
"D.	c #9C9C9C",
"E.	c #515151",
"F.	c #181818",
"G.	c #BCBCBC",
"H.	c #282828",
"I.	c #7D7D7D",
"J.	c #7C7C7C",
"K.	c #2E2E2E",
"L.	c #030303",
"M.	c #7A7A7A",
"N.	c #1E1E1E",
"O.	c #BEBEBE",
"P.	c #C3C3C3",
"Q.	c #BBBBBB",
"R.	c #8A8A8A",
"S.	c #AEAEAE",
"T.	c #8F8F8F",
"U.	c #EBEBEB",
"V.	c #C0C0C0",
"W.	c #414141",
"X.	c #0F0F0F",
"Y.	c #6B6B6B",
"Z.	c #949494",
"`.	c #B3B3B3",
" +	c #525252",
".+	c #EAEAEA",
"++	c #E7E7E7",
"@+	c #4E4E4E",
"                                                                                                    ",
"                                                                                                    ",
"                                                                                                    ",
"                                                                                                    ",
"                                                                                                    ",
"                                                . + @ #                                             ",
"                                              $ % & * = .                                           ",
"                                            - = ; > > , ' # )                                       ",
"                                        - ! ~ { ] ^ / ( > _ : < [                                   ",
"                                    # } | > 1 2 3 4 5 6 7 8 9 0 9 #                                 ",
"                                  a % b c d e f g h i j k f g l m n )                               ",
"                                a o p q r s t u v w w x > y z - A _ B                               ",
"                              ) s > C s x D E F x r x G r > | H . A I J                             ",
"                              K L M D N D F s F D N O P D Q R S f . T C                             ",
"                              i & v r G N Q U t v ] V x w u W 5 X } Y Z                             ",
"                            . | ` v x  .t o ..+.@.#.X $.g %.&.s *.> =.-                             ",
"                            l -.;.E F t >.; *.&.l ,.> '.F ).!.~.X {.'                               ",
"                            + > u w E E ].> 5 @.^.H > > > > > /.(.@.                                ",
"                            %.> _.Q s E _ > :.%.g q > ..<.# # +.                                    ",
"                            + T [.Q w  .}.> '.|.%.1.> 2.3.= =.                                      ",
"                            +.T ;.t s  .4.n 5.t f R > 6.> 7.8.> 9.                                  ",
"                              y 0.2 Q Q t ;.a.A + < *.4.;.&.%.b.c.d.                                ",
"                              0.S e.W u u t Q t + f.g.h.$ . ) @ f.i.{.                              ",
"                                j.> B 2 t _.Q E Q e.+.M > ,._.$ e.<.j.g                             ",
"                                . k.i.l.m.2 t F r u %.+.n.j g.%.)   g.o.)                           ",
"                                . 3.E p.> q w r q.4.w |.%.l f.> u ) a > '                           ",
"                                # ' $ r.4 > s.P t.u.E w u _.G v.w.).  > |.                          ",
"                                  )   ) [ 9 k  .x P x t t |.e.+ :.,.) > d.                          ",
"                                . @ e x.: > y._.v 9 * z.w u _.Z G > >.A.d.                          ",
"                              $ B.> > k.C.-.: w e.D.> / : s v N Z d.E.F.G.                          ",
"                            . ,.].>.3 _.*.> n F W < > > H.u.F s C [.j p |.                          ",
"                            A > i.I.#.J.> > K.v |.U > > L.R  .v f y.B M.$                           ",
"                            a.5.A u $.y.N.> _ v |.U > > L.b.D v f z.> 1.[                           ",
"                            o 7.2 v 4.O.}.b n x t a.> > *.C F u f i K.3                             ",
"                            + > u  .C q.h 2.& t.w C.> H.,. .v W g > e.                              ",
"                              i.n r P P.G Q.= 7 } R.j S.x x t g ^ >                                 ",
"                              @ n k.u  .E C } S.Z 4.O.r G 4 W T.> U.                                ",
"                                e.> > O _.x G.Z S.] C s u e.:.> Q.                                  ",
"                                  e ` _ k.v P ;.4.V.E 2 P.p W.)                                     ",
"                                    f ,.X.> a.x [.r h Y.X Z.                                        ",
"                                        &.M W.g `.8  +> A                                           ",
"                                          { /.v .+`.> m.)                                           ",
"                                          ++> m.V > @+#                                             ",
"                                            O.> /.> u                                               ",
"                                            @.G.O #                                                 ",
"                                                                                                    ",
"                                                                                                    ",
"                                                                                                    ",
"                                                                                                    ",
"                                                                                                    "};
