/* XPM */
static char *b65e7e1898fa42cff82b74ef8764ad2eCFK3CN9XW9YquFnp[] = {
/* columns rows colors chars-per-pixel */
"50 45 114 2 ",
"   c white",
".  c #FEFEFE",
"X  c #FDFDFD",
"o  c gray99",
"O  c gray98",
"+  c #FBFBFB",
"@  c #E7E7E7",
"#  c #DDDDDD",
"$  c gray79",
"%  c gray69",
"&  c #F9F9F9",
"*  c gray87",
"=  c gray86",
"-  c gray85",
";  c gray91",
":  c #EEEEEE",
">  c #CACACA",
",  c #929292",
"<  c #F3F3F3",
"1  c gray95",
"2  c #F1F1F1",
"3  c gray94",
"4  c #EFEFEF",
"5  c #F8F8F8",
"6  c #EAEAEA",
"7  c #DADADA",
"8  c #E1E1E1",
"9  c gray83",
"0  c gray61",
"q  c #C8C8C8",
"w  c #E9E9E9",
"e  c #E4E4E4",
"r  c gray73",
"t  c gray88",
"y  c gray97",
"u  c #D2D2D2",
"i  c #9B9B9B",
"p  c gray65",
"a  c gray71",
"s  c gray76",
"d  c #C6C6C6",
"f  c #B6B6B6",
"g  c gray74",
"h  c gray77",
"j  c gray78",
"k  c gray72",
"l  c #B4B4B4",
"z  c #C0C0C0",
"x  c #E2E2E2",
"c  c gray81",
"v  c #A5A5A5",
"b  c gray92",
"n  c gray48",
"m  c gray82",
"M  c #CDCDCD",
"N  c #9A9A9A",
"B  c #AFAFAF",
"V  c #868686",
"C  c #D5D5D5",
"Z  c #CBCBCB",
"A  c #F6F6F6",
"S  c #AEAEAE",
"D  c #8D8D8D",
"F  c gray84",
"G  c gray60",
"H  c gray68",
"J  c #939393",
"K  c #B1B1B1",
"L  c gray58",
"P  c #989898",
"I  c gray96",
"U  c #E6E6E6",
"Y  c #ACACAC",
"T  c #979797",
"R  c #C5C5C5",
"E  c #F4F4F4",
"W  c gray90",
"Q  c gray67",
"!  c #A9A9A9",
"~  c #909090",
"^  c gray59",
"/  c gray66",
"(  c #959595",
")  c #A7A7A7",
"_  c gray56",
"`  c gray75",
"'  c gray89",
"]  c #C1C1C1",
"[  c #AAAAAA",
"{  c gray70",
"}  c #A4A4A4",
"|  c #838383",
" . c #BCBCBC",
".. c gray52",
"X. c #D8D8D8",
"o. c #C3C3C3",
"O. c #8E8E8E",
"+. c gray50",
"@. c gray51",
"#. c #D7D7D7",
"$. c gray57",
"%. c gray55",
"&. c gray64",
"*. c #DFDFDF",
"=. c #8B8B8B",
"-. c #A2A2A2",
";. c gray54",
":. c #888888",
">. c gainsboro",
",. c #7E7E7E",
"<. c gray",
"1. c #CECECE",
"2. c gray93",
"3. c LightGray",
/* pixels */
"          . .                                                       . .         . X o X             ",
"          O .                     . .                             o + .     . X @ # $ %     . .     ",
"        o &                     . o + X                         X O + X O * = - ; : > ,   X o o X   ",
"      + O + < 1 1 1 2 2 2 2 2 2 3 3 3 2 4 2 2 2 2 2 2 2 & . . 5 6 * 7 = 8 O . .   . 9 0 X X X + o   ",
"    o O X & q @ ; ; ; @ ; ; ; @ @ w ; 6 ; 6 6 6 6 w w e r = # t 6 y . .             u i X X o X .   ",
"  O & X   y 8 p a s d s f a a g h j j k l a k z d j g $ x X 5 +                     c 0 . o o .     ",
"  o X     y 6 v 4 b ; ; w w 6 w w ; w ; b b @ @ @ ; n m . X O .                     M N   . .       ",
"          y 6 B .                                 . V C                             Z i             ",
"          A w S .                                 . D F                             q G             ",
"          A ; H                                   . J -                             j G             ",
"          A ; K                                     L -                             j P             ",
"          I @ %                                     J -                             d P             ",
"          A @ H                                   . J 7                             d P             ",
"          A @ H                                     J 7                             d P             ",
"          I U Y                                     , -                             d T             ",
"        . I U Y                       + X           J 7         .                   R T .     . +   ",
"      X o E W Q                     X O X           J 7       X o o                 R T .   . O +   ",
"  . o o X E U !                   X & O             ~ -     X o X o o               R ^ . . + 5 X   ",
"  . o o o < W /                 . & +               ~ -     o X o X X             . h ( . + & .     ",
"    X o + < e ) .             X O O .               _ -     . + o .             . o s L o & o       ",
"      o . E e ,               o O .                 _ -       . .         X X o * r ` ~ 5 o         ",
"          E ' J                 .                   _ -                   X C ] [ B { V o           ",
"          I ' }                                   . _ -                         = > z L .           ",
"          I ' p                                   . | -                         = h  ._ .           ",
"          I ' /                                   . D -                         ' g f ..X           ",
"          E ' /                                   . D X.                          O o., X           ",
"          E ' /                                   . O.X.                            R , X           ",
"          E x /                                   . +.X.                            R , X .         ",
"          E 8 /                                   . @.#.                            R $.X .         ",
"          1 8 )                                     D X.          X o .             R ~ X .         ",
"        X 4 t p                   X o .             D X.        . O +               R $.X X X X     ",
"      X & 3 t v                 X o o O X           %.#.      . O O X               R $.o o X X X   ",
"    X & + E t }               . o X o o .           %.#.      O 5 .                 R ~ o o X o o   ",
"  X O O . I t &.                o X X .             %.#.  . O & X .                 R ~ o o X X .   ",
"  O O .   I t ~ .                 o X               %.#.  X & X                     h _ o X o .     ",
". . .     I *.$..                                   =.#.  . .                       h _ o .         ",
"          I *.-.                                    ;.#.                            h _ o           ",
"          < *.&.                                    ;.X.                            h _ o           ",
"          1 *.}                                   . :.#.                            h _ o           ",
"          4 >.J R R d d R R R h h h h h h h s s s o.@.>.. X                         h _ X           ",
"          $ q f = = = >.>.>.>.>.# # # * * x 8 # # >.H ,.<.C U b .                   h _ X           ",
"          & A y y y A A y y y y y 5 5 y y o o 5 y 5 O o X O @ 8 m c 1.2.o           ] %.X           ",
"                                    .                     . . .   . X * 1.c 7 w + . z O..       .   ",
"                                      . .                               X X e 1.1.3.a 0       X o   ",
"      X X .                           O X                     . X .               O ; O     . O o   "
};
