/* XPM */
static char * P_xpm[] = {
"50 50 559 2",
"  	c #FFFFFF",
". 	c #EAE0E2",
"+ 	c #C1A4A8",
"@ 	c #98737A",
"# 	c #734C52",
"$ 	c #60373E",
"% 	c #532E34",
"& 	c #522D33",
"* 	c #58333A",
"= 	c #604247",
"- 	c #786065",
"; 	c #B1ABAC",
"> 	c #EBEBEB",
", 	c #E4C5CA",
"' 	c #78444E",
") 	c #4B1C23",
"! 	c #1F0D10",
"~ 	c #0C090B",
"{ 	c #0C1213",
"] 	c #122626",
"^ 	c #173A3A",
"/ 	c #1A4A49",
"( 	c #1C5453",
"_ 	c #215A59",
": 	c #245F5D",
"< 	c #285A59",
"[ 	c #255454",
"} 	c #1C4A49",
"| 	c #173636",
"1 	c #0C1819",
"2 	c #080B0B",
"3 	c #141314",
"4 	c #524447",
"5 	c #B8B7B7",
"6 	c #FCEEF0",
"7 	c #8B4E58",
"8 	c #391218",
"9 	c #0D0A0B",
"0 	c #14292A",
"a 	c #155755",
"b 	c #379390",
"c 	c #7EDAD6",
"d 	c #C6FBF9",
"e 	c #F4FDFC",
"f 	c #F9F9F9",
"g 	c #F4F4F4",
"h 	c #F3F3F3",
"i 	c #F7F7F7",
"j 	c #FAFAFA",
"k 	c #FDFDFD",
"l 	c #FDFEFE",
"m 	c #CFEDEC",
"n 	c #7BA7A7",
"o 	c #284748",
"p 	c #0B1616",
"q 	c #131617",
"r 	c #868686",
"s 	c #FFF8F9",
"t 	c #A05C67",
"u 	c #2C0C11",
"v 	c #111617",
"w 	c #16625F",
"x 	c #6AD4D1",
"y 	c #D0F6F4",
"z 	c #F2F2F2",
"A 	c #EDEDED",
"B 	c #ECECEC",
"C 	c #EEEEEE",
"D 	c #EFEFEF",
"E 	c #81878B",
"F 	c #111E1F",
"G 	c #131919",
"H 	c #B4B7B7",
"I 	c #FEFEFE",
"J 	c #F0C8CF",
"K 	c #4F151F",
"L 	c #111011",
"M 	c #16605E",
"N 	c #83E9E6",
"O 	c #F0F8F7",
"P 	c #E9E9E9",
"Q 	c #E6E6E6",
"R 	c #E3E3E3",
"S 	c #E1E1E1",
"T 	c #E4E4E4",
"U 	c #E5E5E5",
"V 	c #E7E7E7",
"W 	c #E8E8E8",
"X 	c #E0E0E0",
"Y 	c #DFDFDF",
"Z 	c #7D7076",
"` 	c #090F0F",
" .	c #485A5A",
"..	c #FFF1F3",
"+.	c #8A5860",
"@.	c #694047",
"#.	c #41191F",
"$.	c #181012",
"%.	c #412E32",
"&.	c #27090E",
"*.	c #0B1010",
"=.	c #073534",
"-.	c #EDFDFD",
";.	c #E2E2E2",
">.	c #DCDCDC",
",.	c #DADADA",
"'.	c #DEDEDE",
").	c #D9D9D9",
"!.	c #D6D6D6",
"~.	c #D5D5D5",
"{.	c #D6BABF",
"].	c #111718",
"^.	c #284342",
"/.	c #F59DAB",
"(.	c #12090A",
"_.	c #051011",
":.	c #0A3C3B",
"<.	c #50B4B1",
"[.	c #1F2226",
"}.	c #052928",
"|.	c #1C1F22",
"1.	c #0C2B2B",
"2.	c #C1F6F4",
"3.	c #DBDBDB",
"4.	c #D8D8D8",
"5.	c #D2D2D2",
"6.	c #D4D4D4",
"7.	c #D7D7D7",
"8.	c #D3D3D3",
"9.	c #CFCFCF",
"0.	c #D0D0D0",
"a.	c #EAEAEA",
"b.	c #F0F0F0",
"c.	c #F5F5F5",
"d.	c #DFBBC0",
"e.	c #111517",
"f.	c #335856",
"g.	c #8F3644",
"h.	c #09090A",
"i.	c #050E0E",
"j.	c #539795",
"k.	c #DCCFD1",
"l.	c #9E4352",
"m.	c #091414",
"n.	c #94898F",
"o.	c #071111",
"p.	c #679695",
"q.	c #CECECE",
"r.	c #D1D1D1",
"s.	c #C4818C",
"t.	c #081010",
"u.	c #78A09F",
"v.	c #913948",
"w.	c #050A0A",
"x.	c #0A1F1E",
"y.	c #75B8B6",
"z.	c #946B72",
"A.	c #0E090A",
"B.	c #101F1F",
"C.	c #4E434A",
"D.	c #0F0C0D",
"E.	c #339894",
"F.	c #C8C8C8",
"G.	c #F1F1F1",
"H.	c #F6F6F6",
"I.	c #692A36",
"J.	c #0A2322",
"K.	c #F0F9F8",
"L.	c #E08393",
"M.	c #0A0B0C",
"N.	c #2A3234",
"O.	c #260B10",
"P.	c #070707",
"Q.	c #125958",
"R.	c #0E0B0C",
"S.	c #0F5654",
"T.	c #ACE3E1",
"U.	c #CCCCCC",
"V.	c #EEBEC6",
"W.	c #111113",
"X.	c #5D9C9B",
"Y.	c #FFEAED",
"Z.	c #382C30",
"`.	c #041313",
" +	c #020A0A",
".+	c #0E4C4A",
"++	c #4A6265",
"@+	c #060E0E",
"#+	c #0C1313",
"$+	c #61C6C1",
"%+	c #B9939B",
"&+	c #767373",
"*+	c #CDCDCD",
"=+	c #DDDDDD",
"-+	c #65222E",
";+	c #143D3C",
">+	c #450F19",
",+	c #0E413F",
"'+	c #AFF3F1",
")+	c #E0E7E6",
"!+	c #98D7D4",
"~+	c #DAE5E5",
"{+	c #C4A6AB",
"]+	c #110F0F",
"^+	c #121E1E",
"/+	c #B1B2B2",
"(+	c #CBCBCB",
"_+	c #CA6E7E",
":+	c #091010",
"<+	c #BCEDEB",
"[+	c #FFC4CE",
"}+	c #251115",
"|+	c #136E6C",
"1+	c #D9D2D3",
"2+	c #3B363A",
"3+	c #070F0F",
"4+	c #5D6A69",
"5+	c #CACACA",
"6+	c #C9C9C9",
"7+	c #F6BAC3",
"8+	c #110F11",
"9+	c #67B9B6",
"0+	c #F39BAA",
"a+	c #389A97",
"b+	c #8A787C",
"c+	c #0B0F0F",
"d+	c #182627",
"e+	c #B5B5B5",
"f+	c #C5C5C5",
"g+	c #C6C6C6",
"h+	c #C7C7C7",
"i+	c #F7DFE3",
"j+	c #32161B",
"k+	c #2B7573",
"l+	c #EE94A3",
"m+	c #0C0C0C",
"n+	c #54BBB8",
"o+	c #C5BABC",
"p+	c #24262A",
"q+	c #6F7575",
"r+	c #F8F1F2",
"s+	c #47141E",
"t+	c #155C5A",
"u+	c #F29CAB",
"v+	c #0D0D0D",
"w+	c #66C2BF",
"x+	c #E0C3C8",
"y+	c #47141D",
"z+	c #2D2023",
"A+	c #5E5355",
"B+	c #B3B3B3",
"C+	c #6E5A60",
"D+	c #080F0F",
"E+	c #273536",
"F+	c #B9B9B9",
"G+	c #89646C",
"H+	c #797878",
"I+	c #F8F3F4",
"J+	c #4A141E",
"K+	c #175B59",
"L+	c #FDB2BF",
"M+	c #0F0D0E",
"N+	c #57B3AF",
"O+	c #E0D8DA",
"P+	c #4E1E28",
"Q+	c #010A09",
"R+	c #000000",
"S+	c #0C0F0F",
"T+	c #829695",
"U+	c #AEA2A4",
"V+	c #141A1C",
"W+	c #848989",
"X+	c #470F14",
"Y+	c #1B2627",
"Z+	c #B2B2B2",
"`+	c #A26873",
" @	c #4A4A4A",
".@	c #F9E9EB",
"+@	c #44131B",
"@@	c #145B59",
"#@	c #171113",
"$@	c #419692",
"%@	c #CC7D89",
"&@	c #0F090B",
"*@	c #104B49",
"=@	c #C3C3C3",
"-@	c #C0C0C0",
";@	c #534448",
">@	c #120F0F",
",@	c #0C1413",
"'@	c #1A2C2F",
")@	c #5F6969",
"!@	c #94424C",
"~@	c #A3D4D2",
"{@	c #FBCFD7",
"]@	c #2E1419",
"^@	c #17706E",
"/@	c #FFE9ED",
"(@	c #34151C",
"_@	c #1D605E",
":@	c #CD7F8A",
"<@	c #0F080A",
"[@	c #0F4645",
"}@	c #C4C4C4",
"|@	c #A49498",
"1@	c #0F1214",
"2@	c #030F0F",
"3@	c #88BEBD",
"4@	c #74666A",
"5@	c #0A0F0F",
"6@	c #182626",
"7@	c #BBBBBB",
"8@	c #BC6E7B",
"9@	c #090C0C",
"0@	c #70B6B3",
"a@	c #F8F8F8",
"b@	c #F19CAA",
"c@	c #110D0E",
"d@	c #41AEAB",
"e@	c #571420",
"f@	c #0E4543",
"g@	c #D48D9B",
"h@	c #0F090C",
"i@	c #0F4948",
"j@	c #86ABAA",
"k@	c #B3D2D1",
"l@	c #C9C0C2",
"m@	c #2D3034",
"n@	c #695157",
"o@	c #0F0F0F",
"p@	c #458E8C",
"q@	c #B0495B",
"r@	c #7DE4E1",
"s@	c #A24655",
"t@	c #091818",
"u@	c #CDE9E8",
"v@	c #E0D7D9",
"w@	c #482A31",
"x@	c #011211",
"y@	c #001B1A",
"z@	c #329B99",
"A@	c #907F84",
"B@	c #0C1111",
"C@	c #07090A",
"D@	c #206362",
"E@	c #FAF6F7",
"F@	c #57121D",
"G@	c #153B39",
"H@	c #C9FCFA",
"I@	c #F5B9C3",
"J@	c #121112",
"K@	c #4A8B88",
"L@	c #BED4D3",
"M@	c #9FD6D4",
"N@	c #D9E2E1",
"O@	c #E8E1E2",
"P@	c #495D5E",
"Q@	c #44A29F",
"R@	c #F1A8B5",
"S@	c #1E0F12",
"T@	c #197B78",
"U@	c #5A1C26",
"V@	c #0D3533",
"W@	c #F3F4F4",
"X@	c #F8F7F7",
"Y@	c #7A212F",
"Z@	c #101919",
"`@	c #79E6E3",
" #	c #E09FA9",
".#	c #0C1011",
"+#	c #619593",
"@#	c #DD8896",
"##	c #190D0F",
"$#	c #167470",
"%#	c #F0FEFE",
"&#	c #712E3A",
"*#	c #071B1B",
"=#	c #D3E0E0",
"-#	c #EFE1E3",
";#	c #3B171D",
">#	c #100D0F",
",#	c #110E0F",
"'#	c #100E0F",
")#	c #0F0D0F",
"!#	c #121616",
"~#	c #C7D4D4",
"{#	c #F5D1D7",
"]#	c #3E0B14",
"^#	c #122C2B",
"/#	c #98F4F0",
"(#	c #FCF0F2",
"_#	c #342126",
":#	c #112D2D",
"<#	c #F1F2F2",
"[#	c #E6E8E8",
"}#	c #92CECB",
"|#	c #8ACDCB",
"1#	c #88CAC8",
"2#	c #87C9C7",
"3#	c #8BCFCD",
"4#	c #C3EBE9",
"5#	c #5B1421",
"6#	c #111717",
"7#	c #3CC3C0",
"8#	c #FDFFFF",
"9#	c #F6DFE3",
"0#	c #231C1F",
"a#	c #162D2D",
"b#	c #F0F1F1",
"c#	c #FCFCFC",
"d#	c #5B1521",
"e#	c #0F1011",
"f#	c #27A7A2",
"g#	c #F3FEFE",
"h#	c #F7EBED",
"i#	c #342F34",
"j#	c #0C1818",
"k#	c #B7BEBD",
"l#	c #D59BA4",
"m#	c #3B1017",
"n#	c #12191A",
"o#	c #29A5A1",
"p#	c #E7FEFD",
"q#	c #7D6D73",
"r#	c #303335",
"s#	c #D8ABB3",
"t#	c #5A202A",
"u#	c #130A0C",
"v#	c #63DCD8",
"w#	c #F9FFFE",
"x#	c #F6F3F4",
"y#	c #4E595D",
"z#	c #181819",
"A#	c #6B5E60",
"B#	c #F1ECED",
"C#	c #BE9AA0",
"D#	c #6F3C44",
"E#	c #371117",
"F#	c #143635",
"G#	c #39ADA9",
"H#	c #CFFCFB",
"I#	c #8BA1A2",
"J#	c #243E3F",
"K#	c #0A0A0B",
"L#	c #140F10",
"M#	c #291619",
"N#	c #4A4042",
"O#	c #904854",
"P#	c #250F12",
"Q#	c #0C090A",
"R#	c #0C0F10",
"S#	c #143333",
"T#	c #1C6A68",
"U#	c #6DD5D2",
"V#	c #D5FDFB",
"W#	c #FBFBFB",
"X#	c #BBE0DE",
"Y#	c #83B3B3",
"Z#	c #171619",
"`#	c #02302F",
" $	c #81CAC8",
".$	c #E9D5D8",
"+$	c #201D20",
"@$	c #0E514F",
"#$	c #BDF9F7",
"$$	c #EFFEFE",
"%$	c #F9BBC5",
"&$	c #1C1013",
"*$	c #267876",
"=$	c #3B2E31",
"-$	c #C7CFCF",
";$	c #6C2B36",
">$	c #465757",
",$	c #57111C",
"'$	c #0D4342",
")$	c #FDBEC8",
"!$	c #1A1113",
"~$	c #2F7474",
"{$	c #0E0C0D",
"]$	c #4FAAA7",
"^$	c #5C141F",
"/$	c #103F3D",
"($	c #0D3F3D",
"_$	c #F5FEFE",
":$	c #FFBDC8",
"<$	c #191113",
"[$	c #347A7A",
"}$	c #0D0C0D",
"|$	c #4EA7A4",
"1$	c #5B1420",
"2$	c #10403F",
"3$	c #591622",
"4$	c #0E3F3E",
"5$	c #FFB8C4",
"6$	c #161011",
"7$	c #367A7A",
"8$	c #4AA29F",
"9$	c #5E1520",
"0$	c #5A1824",
"a$	c #0F4240",
"b$	c #F6FFFE",
"c$	c #FFB4C1",
"d$	c #130E10",
"e$	c #377577",
"f$	c #0D0C0C",
"g$	c #4AA4A1",
"h$	c #611623",
"i$	c #0F3D3B",
"j$	c #591723",
"k$	c #0F403F",
"l$	c #F7FFFE",
"m$	c #FFD9DF",
"n$	c #15282A",
"o$	c #0C0C0D",
"p$	c #57B8B5",
"q$	c #7A2433",
"r$	c #091515",
"s$	c #241115",
"t$	c #0C4C49",
"u$	c #FFFEFE",
"v$	c #530F1A",
"w$	c #071C1B",
"x$	c #156663",
"y$	c #B6E5E3",
"z$	c #F3D1D7",
"A$	c #3A0F16",
"B$	c #0E3332",
"C$	c #215F5E",
"D$	c #73E0DC",
"E$	c #BD6876",
"F$	c #1C0D10",
"G$	c #0F625F",
"H$	c #E3ECEC",
"I$	c #EEDFE1",
"J$	c #621825",
"K$	c #0F1213",
"L$	c #49C8C3",
"M$	c #B9606F",
"N$	c #0D0406",
"O$	c #082625",
"P$	c #85DFDD",
"Q$	c #CFA2AA",
"R$	c #4A141C",
"S$	c #0D0D0E",
"T$	c #158581",
"U$	c #585E61",
"V$	c #0B1B1B",
"W$	c #090B0B",
"X$	c #201417",
"Y$	c #291518",
"Z$	c #1F0E12",
"`$	c #123130",
" %	c #2FA9A5",
".%	c #E0FDFC",
"+%	c #CDEAE9",
"@%	c #6BA6A5",
"#%	c #458D8B",
"$%	c #499895",
"%%	c #7DDCD8",
"                                                                                                    ",
"                                                                                                    ",
"                                                                                                    ",
"                                        . + @ # $ % & & & * = - ; >                                 ",
"                                , ' ) ! ~ { ] ^ / ( _ : < [ } | 1 2 3 4 5                           ",
"                          6 7 8 9 0 a b c d e f g h h g g i j k l m n o p q r k                     ",
"                      s t u v w x y g g g z A > B A C D z z h g h z C A C E F G H I                 ",
"                    J K L M N O z B P Q R S T U V Q V Q V W V U X Y T U V P D Z `  .f               ",
"        ..+.@.#.$.%.&.*.=.-.f A T ;.Y >.,.,.Y X X Y Y '.'.>.).!.~.~.,.S T U > z {.].^.f             ",
"        /.(._.:.<.[.}.|.1.2.C ;.'.3.4.!.5.6.3.>.,.).).,.7.~.~.8.9.0.!.>.X R a.b.c.d.e.f.k           ",
"        g.h.i.j.k.l.m.n.o.p.U '.7.!.6.0.q.6.7.7.!.!.~.6.8.r.8.5.0.q.r.4.'.S P D h c.s.t.u.I         ",
"        v.w.x.y.z.A.B.C.D.E.;.3.~.5.9.F.q.8.~.8.5.8.5.r.0.r.0.5.5.0.r.~.Y S V > D G.H.I.J.K.        ",
"        L.M.i.N.O.P.Q.R.S.T.S 3.7.r.U.F.q.~.6.r.0.9.0.q.q.9.9.5.8.6.~.).'.R R V P > z V.W.X.        ",
"        Y.Z.`. +.+++@+#+$+T '.%+&+r.q.U.0.5.5.0.9.*+q.U.U.q.9.r.5.r.8.).>.'.=+;.U W A g -+;+I       ",
"          ..>+,+'+H.)+!+~+T Y {+]+^+/+q.(+(+*+0.q.U.(+U.U.*+U.(+U.q.0.!.7.).3.'.X T V z _+:+<+      ",
"          [+}+|+i g A P Q T S X 1+2+3+4+5+6+F.*+*+U.5+U.U.F.F.6+U.q.r.~.4.7.7.,.Y S Q D 7+8+9+      ",
"          0+D.a+H.G.B P Q U ;.X '.3.b+c+d+e+f+5+U.U.5+(+F.g+h+5+U.q.r.!.,.7.!.).>.S U A i+j+k+      ",
"          l+m+n+c.b.B a.Q U R X Y >.).o+p+` q+g+U.U.(+F.h+h+h+5+U.0.6.,.=+,.7.).=+S P C r+s+t+      ",
"          u+v+w+h b.B > W Q T S x+y+z+A+B+C+D+E+F+h+G+H+F.6+F.(+*+r.~.>.'.Y =+'.X R a.D I+J+K+      ",
"          L+M+N+z G.A B P Q U R O+P+Q+R+S+T+U+V+S+W+X+w.Y+Z+(+U.0.`+ @=+Y S ;.T U V > g .@+@@@      ",
"          [+#@$@z G.D B > W Q T S %@&@R+R+*@=@-@;@3+>@,@'@D+)@0.~.!@` ~@S ;.T V W a.D i {@]@^@      ",
"          /@(@_@z z b.A B > W T X :@<@R+R+[@F.}@=@|@1@2@3@4@5@6@7@8@9@0@S T V P B b.g a@b@c@d@      ",
"            e@f@z z G.D A B a.U S g@h@R+R+i@q.*+*+5.8.j@k@~.l@m@3+n@o@p@T V P A G.g c.f q@c+r@      ",
"            s@t@u@z z G.D A a.W U v@w@x@y@z@,.).'.T S Y >.,.).>.A@B@C@D@> A G.g c.H.H.E@F@G@H@      ",
"            I@J@K@h z z G.D B W U R X L@M@N@U > A D P Q T S S R a.O@P@Q@g H.H.H.H.H.H.R@S@T@        ",
"              U@V@W@h z z G.A a.Q T S S Q W B C b.z D A > W P a.C g H.H.H.H.H.H.H.H.X@Y@Z@`@        ",
"               #.#+#H.g h G.D A a.Q W P > B C D G.z G.C A > a.B C z H.H.H.H.H.H.H.H.@###$#%#        ",
"                &#*#=#a@i c.z D A a.> B B C -#;#>#,#,#,#'#)#!#~#C G.c.H.H.H.H.H.H.{#]#^#/#          ",
"                (#_#:#<#j a@H.z D B B A C D G.[#}#|#|#|#1#2#3#4#D G.c.H.H.H.H.H..@5#6#7#8#          ",
"                  9#0#a#b#c#f g b.C C D b.z z z z z z z z D D b.G.h c.H.H.H.i i+d#e#f#g#            ",
"                    h#i#j#k#I j g G.z z z z z z z z z z z z h h g H.f f f c#l#m#n#o#p#              ",
"                        q#t.r#0.f z z z z z z z z z z z z h g i f j I I s#t#u#;+v#w#                ",
"                          x#y#:+z#A#}@G.z z z z z G.G.G.z g i a@B#C#D#E#9 F#G#H#                    ",
"                              I I#J##+K#L#M#N#4.G.D C D G.c.O#P#Q#R#S#T#U#V#                        ",
"                                    W#X#Y#Z#`# $A B B C G.c..$+$@$#$$$                              ",
"                                      c#%$&$*$=$-$a.> A D ;$>$,$'$8#                                ",
"                                        )$!$~${$]$W a.> b.^$/$e@($_$                                ",
"                                        :$<$[$}$|$Q W a.C 1$2$3$4$%#                                ",
"                                        5$6$7$}$8$Y ;.P C 9$2$0$a$b$                                ",
"                                        c$d$e$f$g$X X T > h$i$j$k$l$                                ",
"                                        m$&$n$o$p$T ;.U D q$r$s$t$l$                                ",
"                                        u$v$w$x$y$V V W z$A$B$C$D$                                  ",
"                                        E$F$G$H$B a.B I$J$K$L$                                      ",
"                                      M$N$O$P$b.D D Q$R$S$T$p#                                      ",
"                                      I+U$V$W$X$Y$Z$9 `$ %.%                                        ",
"                                            +%@%#%$%%%H#                                            ",
"                                                                                                    ",
"                                                                                                    ",
"                                                                                                    ",
"                                                                                                    "};
