/* XPM */
static char *ed618404fa9749e08afe7d1c87f65ba6Z58vAxbGDcM2KN7C[] = {
/* columns rows colors chars-per-pixel */
"50 50 116 2 ",
"   c #221714",
".  c #231815",
"X  c #271C19",
"o  c #291E1B",
"O  c #2B211E",
"+  c #2E2421",
"@  c #312624",
"#  c #332926",
"$  c #352B29",
"%  c #392F2D",
"&  c #3A312E",
"*  c #3D3431",
"=  c #403634",
"-  c #423936",
";  c #453D3B",
":  c #483F3D",
">  c #49403E",
",  c #4D4543",
"<  c #514946",
"1  c #544D4B",
"2  c #584F4E",
"3  c #57504E",
"4  c #58514F",
"5  c #5C5553",
"6  c #5F5856",
"7  c #605957",
"8  c #645D5C",
"9  c #67615F",
"0  c #68615E",
"q  c #6B6563",
"w  c #6F6867",
"e  c #726C6A",
"r  c #76706F",
"t  c #777271",
"y  c #7B7574",
"u  c #7E7877",
"i  c #7D7978",
"p  c #837D7C",
"a  c #86807F",
"s  c #878281",
"d  c #8A8584",
"f  c #8D8887",
"g  c #8E8989",
"h  c #918C8B",
"j  c #94908F",
"k  c #969291",
"l  c #9A9695",
"z  c #9B9897",
"x  c #9E9A99",
"c  c #A19D9D",
"v  c #A3A09F",
"b  c #A5A1A1",
"n  c #AAA7A6",
"m  c #ADABAA",
"M  c #B2AFAE",
"N  c #B5B3B2",
"B  c #B9B6B5",
"V  c #BDBABA",
"C  c #C1BEBE",
"Z  c #C2C0BF",
"A  c #C2C0C0",
"S  c #C3C1C1",
"D  c #C5C3C3",
"F  c #C7C5C4",
"G  c #C7C6C6",
"H  c #C4C2C1",
"J  c #C8C5C4",
"K  c #C8C6C5",
"L  c #C9C7C7",
"P  c #C9C7C6",
"I  c #C9C8C7",
"U  c #CBCAC9",
"Y  c #CCC9C9",
"T  c #CCCAC9",
"R  c #CDCBCA",
"E  c #CCCBCB",
"W  c #CECDCD",
"Q  c #CFCDCD",
"!  c #CFCECE",
"~  c #CCCAC9",
"^  c #D0CECE",
"/  c #D1D0D0",
"(  c #D3D2D2",
")  c #D4D2D2",
"_  c #D4D4D3",
"`  c #D5D5D5",
"'  c #D6D4D4",
"]  c #D4D3D3",
"[  c #D9D8D8",
"{  c #DDDCDC",
"}  c #DEDCDC",
"|  c #DAD8D8",
" . c #E0DEDE",
".. c #E1DFDF",
"X. c #E1DFDF",
"o. c #E1E1E1",
"O. c #E6E5E5",
"+. c #E7E5E5",
"@. c #EAE9E8",
"#. c #EAEAEA",
"$. c #ECEBEB",
"%. c #EEEEEE",
"&. c #ECEBEB",
"*. c #F1F1F1",
"=. c gray95",
"-. c #F3F3F3",
";. c #F6F5F5",
":. c gray97",
">. c #F3F3F3",
",. c #F8F7F7",
"<. c #F8F7F7",
"1. c #F9F9F9",
"2. c gray98",
"3. c gray99",
"4. c white",
"5. c #FFFFFF",
/* pixels */
"4.4.4.4.4.4.4.4.4.4.4.4.4.4.4.4.4.4.4.4.4.4.4.4.4.4.4.4.4.4.4.4.4.4.4.4.4.4.4.4.4.4.4.4.4.4.4.4.4.4.",
"4.4.4.4.4.4.4.4.4.4.4.4.4.4.4.4.4.4.4.4.4.4.4.4.4.4.4.4.4.4.4.4.4.4.4.4.4.4.4.4.4.4.4.4.4.4.4.4.4.4.",
"4.4.4.4.4.4.4.4.4.4.4.4.4.4.4.4.4.4.4.4.4.%.B V L 4.4.4.4.4.4.4.4.4.4.4.4.4.4.4.4.4.4.4.4.4.4.4.4.4.",
"4.4.4.4.4.4.4.4.4.4.4.4.4.4.4.4.4.4.4.4.4.c , , w Y 4.4.4.4.4.4.4.4.4.4.4.4.4.4.4.4.4.4.4.4.4.4.4.4.",
"4.4.4.4.4.4.4.4.4.4.4.4.4.4.4.4.4.4.4.4.y ; + + = 1 w c 4.4.4.4.4.4.4.4.4.4.4.4.4.4.4.4.4.4.4.4.4.4.",
"4.4.4.4.4.4.4.4.4.4.4.4.4.4.4.4.4.4.4.Y * . . O y i p n 4.4.4.4.4.4.4.4.4.4.4.4.4.4.4.4.4.4.4.4.4.4.",
"4.4.4.4.4.4.4.4.4.4.4.4.4.4.4.2.*.4.4.d   . . & +.2.@.;.4.4.4.4.4.4.4.4.4.4.4.4.4.4.4.4.4.4.4.4.4.4.",
"4.4.4.4.4.4.4.4.4.4.4.4.4.4.4.m u ( L * .   . < 4.4.4.4.4.4.4.4.4.4.4.4.4.4.4.4.4.4.4.4.4.4.4.4.4.4.",
"4.4.4.4.4.4.4.4.4.4.4.4.4.4.4.C , 8 6 o   .   7 4.4.4.4.4.4.4.4.4.4.4.4.4.4.4.4.4.4.4.4.4.4.4.4.4.4.",
"4.4.4.4.4.4.4.4.4.4.4.4.4.4.4.*.e -     . . . 4 *.4.4.4.4.4.4.4.4.4.4.4.4.4.4.4.4.4.4.4.4.4.4.4.4.4.",
"4.4.4.4.4.4.4.4.4.4.4.4.4.4.4.4.2.p X   . . . * B 4.4.4.4.4.4.4.4.4.4.4.4.4.4.4.4.4.4.4.4.4.4.4.4.4.",
"4.4.4.4.4.4.4.4.4.4.4.4.4.4.4.4.4.C o . . . . o < f 4.4.4.4.4.4.4.4.4.4.4.4.4.4.4.4.4.4.4.4.4.4.4.4.",
"4.4.4.4.4.4.4.4.4.4.4.4.4.4.4.4.4.k o   . . . . 2 c 4.4.4.4.4.4.4.4.4.4.4.4.4.4.4.4.4.4.4.4.4.4.4.4.",
"4.4.4.4.4.4.4.4.4.4.4.4.4.4.4.4.4.y # . . . . X w E 4.4.4.4.4.4.4.4.4.4.4.4.4.4.4.4.4.4.4.4.4.4.4.4.",
"4.4.4.4.4.4.4.4.4.4.4.4.4.4.4.4.4.` 2   . . . . % N 4.4.4.4.4.4.4.4.4.#.G V 4.4.4.4.4.4.4.4.4.4.4.4.",
"4.4.4.4.4.4.4.4.4.4.4.4.4.4.4.4.4.! & X . .     o 1 a m b } 4.4.4.4.! r q N 4.4.4.4.4.4.4.4.4.4.4.4.",
"4.4.4.4.4.4.4.4.4.4.4.4.4.4.4.4.4.{ 8 ; . . . . . . * p p k [ 4.4.4.f ; 9 L 4.4.4.4.4.4.4.4.4.4.4.4.",
"4.4.4.4.4.4.4.4.4.4.4.4.4.4.4.4.4.4.! t . . .   . . X e h , h #.4.*.= < B 4.4.4.4.4.4.4.4.4.4.4.4.4.",
"4.4.4.4.4.4.4.4.4.4.4.4.4.4.4.4.4.4.4.q . . . . . . X 8 N g - q N B % e 4.4.4.4.4.4.4.4.4.4.4.4.4.4.",
"4.4.4.4.4.4.4.4.4.4.4.4.4.4.4.4.4.4.4.2 . . . . . . . = u M a 7 y l y M 4.4.4.4.4.4.4.4.4.4.4.4.4.4.",
"4.4.4.4.4.4.4.4.4.4.4.4.4.4.4.4.4.4.L * . . . . . . . . * l n a p c H 4.4.4.4.4.4.4.4.4.4.4.4.4.4.4.",
"4.4.L 4.4.4.4.4.4.4.4.4.4.4.4.4.4.N 7 . . . . . . . . . . X : C 4.4.4.4.4.4.4.4.4.4.4.4.4.4.4.4.4.4.",
"4.4.n j 4.4.4.4.4.4.4.4.4.4.4.4.g , # . . . . . . . . . . . # B 4.4.4.4.4.4.4.4.4.4.4.4.4.4.4.4.4.4.",
"4.4.C f b 3.4.4.4.4.4.4.4.4.N f ,   . . o ; . . . . . . . . o g ..4.4.4.4.4.4.4.4.4.4.4.4.4.4.4.4.4.",
"4.4.4.V 6 N 2.4.4.4.4.4.4.C 5   . . o # - s * O . . . . . .   4 V 4.4.4.4.4.4.4.4.4.4.4.4.4.4.4.4.4.",
"4.4.4.4.( y i 4.4.4.4.4.g > O . . . - l v o.n 1   . . . . . . + x 4.4.4.4.4.4.4.4.4.4.4.4.4.4.4.4.4.",
"4.4.4.4.4.C h h V 4.4.4.e o . .   % q h l Y X.m $   . . . . . . e 4.4.4.4.4.4.4.4.4.4.4.4.4.4.4.4.4.",
"4.4.4.4.4.4.G p h B C v 8 % . . @ q e 8 9 a R } 3   . .   . . . : B ` ,.4.4.4.4.4.4.4.4.4.4.4.4.4.4.",
"4.4.4.4.4.4.4.4.f , - * w w O X , H > . . X q V f   . . . . . .   , s B 4.4.4.4.4.4.4.4.4.4.4.4.4.4.",
"4.4.4.4.4.4.4.4.( d > * a M j y y #.3   . . $ , > .   . .   . . . + * , c 4.4.4.4.4.4.4.4.4.4.4.4.4.",
"4.4.4.4.4.4.4.4.4.L l g x x j v N >.,       . . O   . . . . . .   o + * u 2.4.4.4.4.4.4.4.4.4.4.4.4.",
"4.4.4.4.4.4.4.4.4.4.4.4.B a t v ! ` $   . . . . . . . . . . .     , < q s ;.4.4.4.4.4.4.4.4.4.4.4.4.",
"4.4.4.4.4.4.4.4.4.4.4.4.4.4.V d e t o . . . . . . . . . . . . .   m N | *.4.4.4.4.4.4.4.4.4.4.4.4.4.",
"4.4.4.4.4.4.4.4.4.4.4.4.4.4.4.Y B i . . . . . . . . . . . . . . $ } 2.4.4.4.4.4.4.4.4.4.4.4.4.4.4.4.",
"4.4.4.4.4.4.4.4.4.4.4.4.4.4.4.4.4.f . . . . O + X . . . . . . X w ;.*.%.R C H V V C Z / @.4.4.4.4.4.",
"4.4.4.4.4.4.4.4.4.4.4.4.4.4.4.4.4.g . . . . * > % O X X . . X + I %...n w 5 1 1 , 1 9 u m O.4.4.4.4.",
"4.4.4.4.4.4.4.4.4.4.4.4.4.4.4.4.4.y . . . . @ t V l 9 * # $ & - f l w - $ @ + O + + $ : e c | 4.4.4.",
"4.4.4.4.4.4.4.4.4.4.4.4.4.4.4.4.4.h . . . . X e @.%.N l p h l j v x 1 . . . . . .   X # ; r S 4.4.4.",
"4.4.4.4.4.4.4.4.4.4.4.4.4.4.4.4.4.V $ O X & & 4 Y 4.4.4.$.4.4.2.[ Y r # O . . .   . . O # 6 B 4.4.4.",
"4.4.4.4.4.4.4.4.4.4.4.4.4.4.4.4.4.3.0 = # k s > 2 | 4.4.4.4.4.4.4.4.[ 8 * O   . . .   O # 8 C 4.4.4.",
"4.4.4.4.4.4.4.4.4.4.4.4.4.4.4.4.4.4.H < o 8 ( M u n ( 4.4.4.4.4.4.4.4.H N c f e 1 % * 8 p N 2.4.4.4.",
"4.4.4.4.4.4.4.4.4.4.4.4.4.4.4.4.4.4.4.e . * 4.4.N B ` 4.4.4.4.4.4.4.4.4.4.4.) V c s f c S 2.4.4.4.4.",
"4.4.4.4.4.4.4.4.4.4.4.4.4.4.4.4.( 3.4.k   O <.4.4.4.4.4.4.4.4.4.4.4.4.4.4.4.4.4.4.4.4.,.4.4.4.4.4.4.",
"4.4.4.4.4.4.4.4.4.4.4.4.4.4.4.4.y 4.4.7 . . b 4.4.4.4.4.4.4.4.4.4.4.4.4.4.4.4.4.4.4.4.4.4.4.4.4.4.4.",
"4.4.4.4.4.4.4.4.4.4.4.4.4.4.4.4.8 n f % .   z 4.4.4.4.4.4.4.4.4.4.4.4.4.4.4.4.4.4.4.4.4.4.4.4.4.4.4.",
"4.4.4.4.4.4.4.4.4.4.4.4.4.4.4.4.y 7 > - , 2 N 4.4.4.4.4.4.4.4.4.4.4.4.4.4.4.4.4.4.4.4.4.4.4.4.4.4.4.",
"4.4.4.4.4.4.4.4.4.4.4.4.4.4.4.4.N # - j S 4.4.4.4.4.4.4.4.4.4.4.4.4.4.4.4.4.4.4.4.4.4.4.4.4.4.4.4.4.",
"4.4.4.4.4.4.4.4.4.4.4.4.4.4.4.4.4.b N O.4.4.4.4.4.4.4.4.4.4.4.4.4.4.4.4.4.4.4.4.4.4.4.4.4.4.4.4.4.4.",
"4.4.4.4.4.4.4.4.4.4.4.4.4.4.4.4.4.4.4.4.4.4.4.4.4.4.4.4.4.4.4.4.4.4.4.4.4.4.4.4.4.4.4.4.4.4.4.4.4.4.",
"4.4.4.4.4.4.4.4.4.4.4.4.4.4.4.4.4.4.4.4.4.4.4.4.4.4.4.4.4.4.4.4.4.4.4.4.4.4.4.4.4.4.4.4.4.4.4.4.4.4."
};
